<svg xmlns="http://www.w3.org/2000/svg" xmlns:xlink="http://www.w3.org/1999/xlink" width="44" zoomAndPan="magnify" viewBox="0 0 33 32.999998" height="44" preserveAspectRatio="xMidYMid meet" version="1.0"><defs><clipPath id="981e99098e"><path d="M 16.5 0 C 7.386719 0 0 7.386719 0 16.5 C 0 25.613281 7.386719 33 16.5 33 C 25.613281 33 33 25.613281 33 16.5 C 33 7.386719 25.613281 0 16.5 0 Z M 16.5 0 " clip-rule="nonzero"/></clipPath><clipPath id="6c84c8d883"><path d="M 6.320312 4.800781 L 26.570312 4.800781 L 26.570312 28.050781 L 6.320312 28.050781 Z M 6.320312 4.800781 " clip-rule="nonzero"/></clipPath><clipPath id="7864c21a2d"><path d="M 6.320312 23.25 L 26.710938 23.25 L 26.710938 31.949219 L 6.320312 31.949219 Z M 6.320312 23.25 " clip-rule="nonzero"/></clipPath><clipPath id="b5e058415b"><path d="M 16.5 23.25 C 10.878906 23.25 6.320312 25.199219 6.320312 27.601562 C 6.320312 30.003906 10.878906 31.949219 16.5 31.949219 C 22.121094 31.949219 26.679688 30.003906 26.679688 27.601562 C 26.679688 25.199219 22.121094 23.25 16.5 23.25 Z M 16.5 23.25 " clip-rule="nonzero"/></clipPath></defs><g clip-path="url(#981e99098e)"><path stroke-linecap="butt" transform="matrix(0.75, 0, 0, 0.75, 0.000001, -0.000001)" fill="none" stroke-linejoin="miter" d="M 22.000001 0.00000133333 C 9.848958 0.00000133333 -0.00000133333 9.848961 -0.00000133333 22.000004 C -0.00000133333 34.151046 9.848958 44.000006 22.000001 44.000006 C 34.151044 44.000006 44.000003 34.151046 44.000003 22.000004 C 44.000003 9.848961 34.151044 0.00000133333 22.000001 0.00000133333 Z M 22.000001 0.00000133333 " stroke="currentcolor" stroke-width="4" stroke-opacity="1" stroke-miterlimit="4"/></g><g clip-path="url(#6c84c8d883)"><path fill="currentcolor" d="M 19.203125 16.363281 C 19.613281 16.160156 19.992188 15.914062 20.347656 15.625 C 20.703125 15.339844 21.019531 15.015625 21.300781 14.65625 C 21.582031 14.296875 21.820312 13.910156 22.015625 13.496094 C 22.210938 13.082031 22.359375 12.65625 22.457031 12.207031 C 22.554688 11.761719 22.601562 11.3125 22.601562 10.855469 C 22.597656 10.398438 22.542969 9.949219 22.441406 9.503906 C 22.335938 9.058594 22.183594 8.632812 21.984375 8.222656 C 21.785156 7.8125 21.542969 7.425781 21.253906 7.070312 C 20.96875 6.714844 20.648438 6.394531 20.289062 6.113281 C 19.933594 5.828125 19.546875 5.585938 19.136719 5.390625 C 18.722656 5.191406 18.296875 5.042969 17.851562 4.941406 C 17.40625 4.839844 16.953125 4.789062 16.496094 4.789062 C 16.042969 4.789062 15.589844 4.839844 15.144531 4.941406 C 14.699219 5.042969 14.273438 5.191406 13.859375 5.390625 C 13.449219 5.585938 13.0625 5.828125 12.707031 6.113281 C 12.347656 6.394531 12.027344 6.714844 11.742188 7.070312 C 11.453125 7.425781 11.210938 7.8125 11.011719 8.222656 C 10.8125 8.632812 10.660156 9.058594 10.554688 9.503906 C 10.453125 9.949219 10.398438 10.398438 10.394531 10.855469 C 10.394531 11.3125 10.441406 11.761719 10.539062 12.207031 C 10.636719 12.65625 10.785156 13.082031 10.980469 13.496094 C 11.175781 13.910156 11.414062 14.296875 11.695312 14.65625 C 11.976562 15.015625 12.292969 15.339844 12.648438 15.625 C 13 15.914062 13.382812 16.160156 13.792969 16.363281 C 13.261719 16.507812 12.742188 16.699219 12.242188 16.929688 C 11.738281 17.160156 11.261719 17.429688 10.804688 17.738281 C 10.34375 18.050781 9.914062 18.394531 9.515625 18.773438 C 9.113281 19.152344 8.746094 19.5625 8.410156 20 C 8.074219 20.441406 7.777344 20.902344 7.519531 21.390625 C 7.257812 21.878906 7.042969 22.382812 6.863281 22.90625 C 6.6875 23.429688 6.554688 23.964844 6.464844 24.511719 C 6.375 25.054688 6.328125 25.601562 6.328125 26.15625 L 6.328125 27.171875 C 6.328125 27.308594 6.355469 27.4375 6.40625 27.5625 C 6.457031 27.6875 6.53125 27.796875 6.625 27.890625 C 6.722656 27.988281 6.832031 28.0625 6.957031 28.113281 C 7.082031 28.164062 7.210938 28.191406 7.34375 28.191406 L 25.652344 28.191406 C 25.785156 28.191406 25.914062 28.164062 26.039062 28.113281 C 26.164062 28.0625 26.273438 27.988281 26.371094 27.890625 C 26.464844 27.796875 26.539062 27.6875 26.589844 27.5625 C 26.640625 27.4375 26.667969 27.308594 26.667969 27.171875 L 26.667969 26.15625 C 26.667969 25.601562 26.621094 25.054688 26.53125 24.511719 C 26.441406 23.964844 26.308594 23.429688 26.132812 22.90625 C 25.953125 22.382812 25.738281 21.878906 25.476562 21.390625 C 25.21875 20.902344 24.921875 20.441406 24.585938 20 C 24.25 19.5625 23.882812 19.152344 23.480469 18.773438 C 23.082031 18.394531 22.652344 18.050781 22.191406 17.738281 C 21.734375 17.429688 21.253906 17.160156 20.753906 16.929688 C 20.253906 16.699219 19.734375 16.507812 19.203125 16.363281 Z M 19.203125 16.363281 " fill-opacity="1" fill-rule="nonzero"/></g><g clip-path="url(#7864c21a2d)"><g clip-path="url(#b5e058415b)"><path fill="currentcolor" d="M 6.320312 23.25 L 26.675781 23.25 L 26.675781 31.949219 L 6.320312 31.949219 Z M 6.320312 23.25 " fill-opacity="1" fill-rule="nonzero"/></g></g></svg>