<svg xmlns="http://www.w3.org/2000/svg" xmlns:xlink="http://www.w3.org/1999/xlink" width="44" zoomAndPan="magnify" viewBox="0 0 33 32.999998" height="44" preserveAspectRatio="xMidYMid meet" version="1.0"><defs><clipPath id="ff70702860"><path d="M 16.5 0 C 7.386719 0 0 7.386719 0 16.5 C 0 25.613281 7.386719 33 16.5 33 C 25.613281 33 33 25.613281 33 16.5 C 33 7.386719 25.613281 0 16.5 0 Z M 16.5 0 " clip-rule="nonzero"/></clipPath><clipPath id="20e013f80e"><path d="M 7 7.546875 L 25 7.546875 L 25 25.546875 L 7 25.546875 Z M 7 7.546875 " clip-rule="nonzero"/></clipPath></defs><g clip-path="url(#ff70702860)"><path stroke-linecap="butt" transform="matrix(0.75, 0, 0, 0.75, 0.000001, -0.000001)" fill="none" stroke-linejoin="miter" d="M 22.000001 0.00000133333 C 9.848958 0.00000133333 -0.00000133333 9.848961 -0.00000133333 22.000004 C -0.00000133333 34.151046 9.848958 44.000006 22.000001 44.000006 C 34.151044 44.000006 44.000003 34.151046 44.000003 22.000004 C 44.000003 9.848961 34.151044 0.00000133333 22.000001 0.00000133333 Z M 22.000001 0.00000133333 " stroke="currentcolor" stroke-width="4" stroke-opacity="1" stroke-miterlimit="4"/></g><g clip-path="url(#20e013f80e)"><path fill="currentcolor" d="M 10.25 24.792969 C 10.90625 24.464844 13.742188 22.003906 16.761719 19.167969 C 19.316406 21.394531 21.546875 23.238281 22.09375 23.617188 C 23.519531 24.605469 25.699219 23.449219 24.414062 21.746094 C 23.46875 20.492188 21.609375 18.539062 19.539062 16.5 C 21.609375 14.464844 23.46875 12.507812 24.414062 11.257812 C 25.699219 9.554688 23.519531 8.394531 22.09375 9.382812 C 21.546875 9.761719 19.316406 11.605469 16.761719 13.832031 C 13.742188 10.996094 10.90625 8.535156 10.25 8.207031 C 8.933594 7.546875 7.285156 8.316406 7.503906 9.964844 C 7.609375 10.738281 10.535156 13.59375 13.75 16.5 C 10.535156 19.40625 7.609375 22.261719 7.503906 23.039062 C 7.285156 24.683594 8.933594 25.453125 10.25 24.792969 Z M 10.25 24.792969 " fill-opacity="1" fill-rule="nonzero"/></g></svg>