<svg xmlns="http://www.w3.org/2000/svg" xmlns:xlink="http://www.w3.org/1999/xlink" width="200" zoomAndPan="magnify" viewBox="0 0 150 149.999998" height="200" preserveAspectRatio="xMidYMid meet" version="1.0"><defs><clipPath id="234c80acac"><path d="M 19 25 L 131.402344 25 L 131.402344 125 L 19 125 Z M 19 25 " clip-rule="nonzero"/></clipPath></defs><g clip-path="url(#234c80acac)"><path fill="currentcolor" d="M 81.664062 45.546875 C 81.671875 45.578125 79.792969 45.792969 76.382812 47.050781 C 73.160156 48.238281 67.816406 50.777344 63.136719 55.976562 C 59.199219 60.351562 55.441406 67.082031 54.8125 75.429688 C 54.566406 78.703125 54.800781 82.269531 55.902344 85.730469 C 56.902344 88.878906 58.65625 92.019531 61.273438 94.480469 C 63.34375 96.429688 65.964844 97.953125 68.890625 98.683594 C 71.648438 99.367188 74.699219 99.339844 77.542969 98.398438 C 79.925781 97.609375 82.152344 96.1875 83.964844 94.296875 C 85.707031 92.484375 87.066406 90.238281 87.941406 87.765625 C 89.597656 83.082031 89.429688 77.675781 87.714844 72.589844 C 86.867188 70.089844 85.636719 67.621094 83.808594 65.648438 C 82.039062 63.738281 79.640625 62.253906 77.011719 61.910156 C 74.820312 61.617188 72.511719 62.121094 70.5 63.199219 C 68.53125 64.257812 66.84375 65.859375 65.5 67.738281 C 62.878906 71.398438 61.714844 75.910156 60.722656 80.597656 C 60.148438 83.390625 59.605469 86.3125 60.214844 89.054688 C 60.507812 90.402344 61.074219 91.710938 61.960938 92.757812 C 62.832031 93.789062 64.03125 94.578125 65.34375 94.835938 C 66.660156 95.101562 68.097656 94.832031 69.265625 94.121094 C 70.421875 93.417969 71.328125 92.277344 71.785156 90.980469 C 72.242188 89.699219 72.269531 88.25 71.890625 86.917969 C 71.515625 85.597656 70.734375 84.382812 69.699219 83.445312 C 68.554688 82.410156 67.078125 81.699219 65.546875 81.601562 C 64.039062 81.5 62.453125 81.996094 61.375 83.039062 C 60.242188 84.117188 59.667969 85.808594 59.871094 87.386719 C 60.066406 88.949219 61.023438 90.4375 62.363281 91.320312 C 63.6875 92.203125 65.414062 92.511719 67 92.1875 C 68.574219 91.875 70.039062 90.933594 71.039062 89.644531 C 72.417969 87.890625 72.910156 85.488281 72.699219 83.179688 C 72.488281 80.894531 71.597656 78.679688 70.460938 76.574219 C 69.035156 73.976562 67.195312 71.503906 64.722656 69.914062 C 63.503906 69.121094 62.136719 68.542969 60.710938 68.296875 C 59.300781 68.054688 57.820312 68.132812 56.476562 68.605469 C 54.90625 69.152344 53.515625 70.242188 52.539062 71.621094 C 51.570312 72.988281 51.007812 74.652344 50.875 76.351562 C 50.605469 79.703125 52.105469 83.136719 54.488281 85.671875 C 57.324219 88.6875 61.363281 90.476562 65.578125 91.339844 C 69.726562 92.183594 74.027344 92.144531 78.417969 92.035156 C 80.519531 91.976562 82.628906 91.910156 84.671875 91.566406 C 86.695312 91.21875 88.691406 90.609375 90.398438 89.535156 C 92.089844 88.472656 93.53125 86.945312 94.230469 85.113281 C 94.582031 84.203125 94.757812 83.226562 94.710938 82.261719 C 94.664062 81.300781 94.402344 80.347656 93.921875 79.527344 C 93.441406 78.71875 92.757812 78.019531 91.9375 77.726562 C 91.527344 77.574219 91.089844 77.507812 90.675781 77.554688 C 90.265625 77.605469 89.863281 77.757812 89.554688 78.007812 C 89.027344 78.398438 88.734375 79.121094 88.605469 79.867188 C 88.488281 80.621094 88.582031 81.441406 88.671875 82.308594 C 88.769531 83.171875 88.871094 84.101562 88.753906 85.070312 C 88.640625 86.050781 88.21875 87.054688 87.40625 87.777344 C 86.5625 88.480469 85.441406 88.738281 84.394531 88.542969 C 83.359375 88.34375 82.449219 87.769531 81.796875 86.996094 C 81.152344 86.226562 80.742188 85.304688 80.535156 84.363281 C 80.328125 83.425781 80.300781 82.476562 80.363281 81.5625 C 80.363281 81.5625 80.363281 81.558594 80.363281 81.558594 C 80.480469 79.734375 80.914062 78.019531 80.957031 76.359375 C 80.976562 75.53125 80.914062 74.714844 80.683594 73.964844 C 80.457031 73.21875 80.078125 72.523438 79.539062 72.019531 C 78.996094 71.503906 78.273438 71.160156 77.515625 71.03125 C 76.761719 70.902344 75.960938 70.992188 75.222656 71.257812 C 73.75 71.777344 72.554688 73.058594 71.871094 74.539062 C 71.1875 76.023438 71.007812 77.742188 71.101562 79.449219 C 71.199219 81.152344 71.589844 82.855469 72 84.59375 C 72.382812 86.195312 72.773438 87.785156 73.382812 89.257812 C 73.382812 89.257812 73.382812 89.261719 73.382812 89.261719 C 73.992188 90.722656 74.8125 92.105469 75.941406 93.136719 C 76.996094 94.113281 78.332031 94.804688 79.75 95.148438 C 81.160156 95.488281 82.667969 95.488281 84.109375 95.183594 C 86.972656 94.589844 89.554688 92.753906 91.40625 90.386719 C 93.246094 88.035156 94.386719 85.144531 95.042969 82.148438 C 95.691406 79.167969 95.859375 76.078125 95.921875 72.945312 C 95.96875 70.195312 95.949219 67.425781 95.117188 64.921875 C 94.703125 63.671875 94.105469 62.488281 93.28125 61.5 C 92.464844 60.519531 91.421875 59.714844 90.253906 59.269531 C 88.953125 58.769531 87.46875 58.710938 86.054688 58.984375 C 84.640625 59.257812 83.28125 59.882812 82.027344 60.683594 C 79.515625 62.277344 77.488281 64.605469 75.203125 66.8125 C 73.167969 68.789062 70.980469 70.597656 69.640625 72.886719 C 68.96875 74.023438 68.488281 75.269531 68.382812 76.539062 C 68.28125 77.796875 68.523438 79.101562 69.1875 80.121094 C 69.9375 81.304688 71.265625 82.136719 72.679688 82.421875 C 74.09375 82.707031 75.632812 82.449219 76.96875 81.800781 C 78.308594 81.15625 79.460938 80.105469 80.355469 78.867188 C 81.25 77.632812 81.882812 76.199219 82.328125 74.695312 C 83.320312 71.339844 83.304688 67.699219 82.632812 64.183594 C 81.960938 60.695312 80.632812 57.328125 79.042969 54.054688 C 77.574219 51.074219 75.882812 48.148438 73.398438 46.117188 C 72.167969 45.105469 70.757812 44.304688 69.246094 43.898438 C 67.746094 43.492188 66.128906 43.460938 64.675781 43.917969 C 63.5 44.277344 62.414062 44.957031 61.484375 45.816406 C 60.5625 46.675781 59.800781 47.726562 59.175781 48.863281 C 57.929688 51.132812 57.289062 53.746094 56.628906 56.402344 C 55.925781 59.277344 55.214844 62.148438 55.257812 64.996094 C 55.277344 66.410156 55.472656 67.820312 55.921875 69.136719 C 56.375 70.441406 57.070312 71.667969 58.015625 72.632812 C 59.019531 73.671875 60.324219 74.429688 61.726562 74.910156 C 63.125 75.386719 64.636719 75.574219 66.15625 75.5625 C 69.191406 75.542969 72.214844 74.675781 75.292969 73.816406 C 80.699219 72.285156 86.207031 70.773438 90.882812 67.839844 C 93.207031 66.386719 95.332031 64.59375 96.96875 62.429688 C 98.597656 60.277344 99.761719 57.75 100.121094 55.105469 C 100.464844 52.632812 100.109375 50.050781 99.125 47.742188 C 98.148438 45.4375 96.539062 43.390625 94.535156 41.863281 C 91.730469 39.714844 88.140625 38.613281 84.542969 38.535156 C 80.964844 38.460938 77.367188 39.394531 74.085938 40.980469 C 67.558594 44.117188 62.488281 49.746094 57.894531 55.675781 C 53.726562 61.097656 49.816406 66.914062 48.027344 73.441406 C 46.996094 77.207031 46.660156 81.246094 47.816406 84.886719 C 48.386719 86.699219 49.308594 88.410156 50.574219 89.796875 C 51.835938 91.175781 53.445312 92.257812 55.210938 92.796875 C 57.34375 93.464844 59.722656 93.335938 61.933594 92.6875 C 64.144531 92.039062 66.203125 90.84375 68.113281 89.429688 C 70.804688 87.417969 73.175781 84.957031 74.878906 82.085938 C 76.574219 79.234375 77.621094 75.96875 77.675781 72.671875 C 77.730469 69.398438 76.804688 66.066406 74.894531 63.429688 C 73 60.8125 70.101562 58.851562 66.933594 58.289062 C 65.53125 58.042969 64.09375 58.042969 62.804688 58.464844 C 61.199219 58.96875 59.789062 60.136719 58.867188 61.589844 C 57.941406 63.042969 57.5 64.816406 57.507812 66.578125 C 57.519531 68.339844 57.992188 70.109375 58.777344 71.734375 C 59.558594 73.359375 60.660156 74.839844 61.9375 76.171875 C 66.425781 80.890625 72.953125 83.425781 79.578125 84.394531 C 83.675781 84.976562 87.882812 85 91.84375 83.980469 C 95.773438 82.96875 99.507812 80.914062 102.066406 77.824219 C 105.195312 74.109375 106.484375 69.015625 106.570312 64.007812 C 106.652344 59.007812 105.558594 54.007812 104.445312 48.964844 C 103.535156 44.953125 102.625 40.910156 100.375 37.726562 C 99.257812 36.136719 97.839844 34.753906 96.160156 33.882812 C 94.492188 33.023438 92.550781 32.636719 90.757812 32.992188 C 89.585938 33.210938 88.457031 33.746094 87.445312 34.460938 C 86.433594 35.175781 85.539062 36.089844 84.738281 37.089844 C 83.128906 39.097656 81.9375 41.488281 80.488281 43.839844 C 78.746094 46.691406 76.730469 49.300781 75.628906 52.210938 C 75.074219 53.660156 74.726562 55.179688 74.761719 56.671875 C 74.796875 58.15625 75.191406 59.644531 76.007812 60.816406 C 76.660156 61.769531 77.597656 62.542969 78.652344 63.085938 C 79.710938 63.628906 80.90625 63.933594 82.125 64.035156 C 84.558594 64.25 87.070312 63.59375 89.472656 62.65625 C 94.910156 60.480469 99.875 56.613281 102.296875 51.367188 C 103.507812 48.761719 104.101562 45.84375 103.851562 43 C 103.605469 40.171875 102.523438 37.386719 100.6875 35.242188 C 98.488281 32.65625 95.121094 30.980469 91.75 31 C 89.417969 31.003906 87.082031 31.785156 85.144531 33.128906 C 83.214844 34.46875 81.667969 36.382812 80.679688 38.542969 C 78.6875 42.839844 79.027344 48.101562 81.003906 52.511719 C 82.214844 55.167969 84.113281 57.8125 84.792969 61.078125 C 85.128906 62.722656 85.058594 64.515625 84.359375 66.152344 C 84 66.964844 83.476562 67.71875 82.792969 68.332031 C 82.109375 68.945312 81.273438 69.394531 80.351562 69.601562 C 79.425781 69.804688 78.476562 69.757812 77.597656 69.496094 C 76.71875 69.238281 75.921875 68.792969 75.242188 68.226562 C 73.894531 67.085938 73.003906 65.566406 72.460938 64.011719 C 71.910156 62.460938 71.628906 60.890625 71.34375 59.390625 C 71.050781 57.902344 70.75 56.457031 70.175781 55.183594 C 69.140625 52.828125 67.132812 50.882812 64.757812 49.839844 C 62.382812 48.792969 59.601562 48.628906 57.078125 49.324219 C 55.070312 49.871094 53.203125 50.964844 51.601562 52.363281 C 49.996094 53.761719 48.660156 55.476562 47.535156 57.335938 C 46.015625 59.894531 44.875 62.75 45.144531 65.535156 C 45.265625 66.921875 45.707031 68.289062 46.5 69.378906 C 47.285156 70.464844 48.425781 71.320312 49.679688 71.648438 C 50.902344 71.980469 52.277344 71.828125 53.4375 71.269531 C 54.605469 70.71875 55.585938 69.734375 56.199219 68.574219 C 56.8125 67.414062 57.0625 66.046875 56.949219 64.714844 C 56.835938 63.382812 56.347656 62.070312 55.597656 60.933594 C 54.835938 59.789062 53.796875 58.820312 52.589844 58.1875 C 51.390625 57.554688 50.007812 57.242188 48.671875 57.339844 C 46.882812 57.457031 45.128906 58.328125 43.867188 59.640625 C 42.605469 60.953125 41.816406 62.742188 41.605469 64.582031 C 41.390625 66.421875 41.757812 68.339844 42.570312 70.039062 C 43.378906 71.738281 44.652344 73.230469 46.167969 74.394531 C 47.683594 75.554688 49.453125 76.390625 51.308594 76.773438 C 53.15625 77.15625 55.109375 77.09375 56.90625 76.546875 C 58.695312 76.003906 60.351562 74.976562 61.585938 73.585938 C 62.816406 72.199219 63.648438 70.4375 63.878906 68.613281 C 64.054688 67.148438 63.871094 65.632812 63.21875 64.375 C 62.570312 63.125 61.460938 62.078125 60.167969 61.683594 C 59.371094 61.421875 58.480469 61.390625 57.644531 61.570312 C 56.804688 61.746094 55.996094 62.144531 55.3125 62.691406 C 53.941406 63.773438 53.089844 65.527344 52.855469 67.320312 C 52.625 69.128906 53.027344 71.027344 53.8125 72.75 C 54.597656 74.476562 55.792969 76.03125 57.15625 77.453125 C 58.941406 79.296875 61 80.878906 63.304688 81.882812 C 65.597656 82.878906 68.160156 83.324219 70.574219 82.910156 C 72.714844 82.554688 74.765625 81.53125 76.265625 79.984375 C 77.757812 78.449219 78.734375 76.371094 78.875 74.25 C 79.050781 71.808594 78.097656 69.269531 76.433594 67.425781 C 74.765625 65.578125 72.355469 64.386719 69.851562 64.046875 C 67.660156 63.742188 65.367188 64.089844 63.21875 64.839844 C 61.074219 65.59375 59.058594 66.773438 57.15625 68.132812 C 53.359375 70.855469 50.019531 74.371094 46.019531 77.253906 C 41.695312 80.355469 36.886719 82.503906 32.945312 85.644531 C 30.980469 87.210938 29.210938 89.011719 27.976562 91.117188 C 27.976562 91.117188 27.976562 91.121094 27.976562 91.121094 C 26.75 93.21875 26.019531 95.632812 26.179688 97.988281 C 26.304688 100.0625 27.113281 102.105469 28.324219 103.859375 C 29.535156 105.617188 31.175781 107.09375 33 108.3125 C 34.5625 109.359375 36.257812 110.195312 38.035156 110.851562 C 41.390625 112.09375 45.042969 112.691406 48.675781 112.871094 C 54.246094 113.136719 59.878906 112.414062 65.53125 111.808594 C 68.113281 111.523438 70.644531 111.277344 72.9375 110.464844 C 75.214844 109.640625 77.34375 108.257812 78.414062 106.265625 C 79.238281 104.792969 79.5 102.988281 79.164062 101.324219 C 78.832031 99.65625 77.890625 98.09375 76.589844 96.980469 C 75.289062 95.859375 73.597656 95.167969 71.875 95.011719 C 70.148438 94.855469 68.363281 95.234375 66.820312 96.050781 C 64.988281 97.015625 63.476562 98.625 62.601562 100.507812 C 61.722656 102.390625 61.472656 104.578125 61.871094 106.621094 C 62.355469 109.074219 63.8125 111.371094 65.878906 112.714844 C 65.878906 112.714844 65.878906 112.71875 65.878906 112.71875 C 67.9375 114.066406 70.65625 114.5 72.957031 113.730469 C 74.414062 113.253906 75.734375 112.316406 76.734375 111.125 C 77.734375 109.925781 78.421875 108.453125 78.761719 106.90625 C 79.464844 103.8125 78.699219 100.4375 77.144531 97.570312 C 76.140625 95.746094 74.816406 94.101562 73.210938 92.816406 C 71.609375 91.53125 69.722656 90.59375 67.734375 90.175781 C 64.773438 89.550781 61.527344 90.113281 59.015625 91.757812 C 56.492188 93.398438 54.664062 96.152344 54.21875 99.101562 C 53.765625 102.050781 54.699219 105.246094 56.710938 107.417969 C 58.71875 109.597656 61.855469 110.792969 64.777344 110.417969 C 67.0625 110.140625 69.253906 108.929688 70.761719 107.175781 C 72.273438 105.417969 73.132812 103.078125 73.171875 100.75 C 73.21875 97.9375 72.050781 95.070312 69.976562 93.21875 C 68.9375 92.285156 67.683594 91.589844 66.34375 91.222656 C 65.003906 90.855469 63.570312 90.8125 62.222656 91.117188 C 60.878906 91.417969 59.601562 92.070312 58.585938 92.988281 C 57.570312 93.90625 56.796875 95.109375 56.398438 96.410156 C 56 97.710938 55.972656 99.136719 56.332031 100.441406 C 56.691406 101.746094 57.441406 102.953125 58.460938 103.832031 C 59.5625 104.792969 61.007812 105.378906 62.476562 105.5 C 64.144531 105.644531 65.886719 105.167969 67.28125 104.226562 C 68.683594 103.285156 69.769531 101.847656 70.332031 100.246094 C 70.898438 98.640625 70.945312 96.839844 70.496094 95.191406 C 70.050781 93.535156 69.09375 92.003906 67.820312 90.839844 C 66.546875 89.675781 64.933594 88.863281 63.234375 88.492188 C 61.53125 88.121094 59.722656 88.199219 58.035156 88.675781 C 54.664062 89.613281 51.800781 92.265625 50.332031 95.476562 C 49.78125 96.679688 49.398438 98.019531 48.917969 99.390625 C 48.445312 100.769531 47.84375 102.183594 46.886719 103.445312 C 45.925781 104.726562 44.519531 105.753906 42.832031 106.097656 C 41.984375 106.257812 41.089844 106.210938 40.242188 105.925781 C 39.394531 105.632812 38.632812 105.085938 38.089844 104.335938 C 37.414062 103.363281 37.171875 102.179688 37.363281 101.054688 C 37.554688 99.941406 38.117188 98.945312 38.902344 98.191406 C 40.09375 97.058594 41.691406 96.476562 43.277344 96.464844 C 44.851562 96.453125 46.371094 96.933594 47.664062 97.71875 C 50.230469 99.300781 51.914062 101.785156 53.289062 104.175781 C 55.601562 108.09375 57.554688 112.117188 60.484375 115.269531 C 63.398438 118.4375 67.257812 120.71875 71.402344 121.925781 C 75.5625 123.136719 80.027344 123.265625 84.296875 122.472656 C 92.886719 120.890625 100.53125 115.53125 106.058594 108.761719 C 107.394531 107.117188 108.609375 105.40625 109.484375 103.554688 C 110.355469 101.703125 110.910156 99.707031 110.875 97.730469 C 110.84375 95.339844 109.953125 92.9375 108.351562 91.207031 C 106.753906 89.476562 104.410156 88.382812 102.085938 88.394531 C 100.503906 88.382812 98.898438 88.882812 97.359375 89.566406 C 95.820312 90.257812 94.335938 91.179688 92.777344 92.054688 C 91.214844 92.941406 89.554688 93.78125 87.726562 94.289062 C 85.890625 94.804688 83.871094 94.898438 81.960938 94.289062 C 80.699219 93.867188 79.683594 93.226562 78.703125 92.875 C 76.976562 92.25 74.953125 92.335938 73.355469 93.175781 C 71.757812 94.003906 70.523438 95.625 70.246094 97.371094 C 70.097656 98.25 70.171875 99.171875 70.464844 100.003906 C 70.757812 100.839844 71.269531 101.605469 71.9375 102.171875 C 72.601562 102.742188 73.433594 103.136719 74.289062 103.273438 C 75.148438 103.410156 76.054688 103.300781 76.84375 102.953125 C 77.898438 102.519531 78.8125 101.554688 79.902344 100.632812 C 80.441406 100.164062 81.035156 99.699219 81.722656 99.3125 C 82.410156 98.917969 83.207031 98.644531 84.066406 98.578125 C 85.457031 98.503906 86.78125 99.015625 87.785156 99.859375 C 88.777344 100.695312 89.488281 101.761719 89.972656 102.871094 C 90.9375 105.082031 91.1875 107.355469 91.945312 109.257812 C 93.175781 112.410156 95.933594 114.945312 99.128906 116.117188 C 102.34375 117.300781 106.042969 117.132812 109.238281 115.851562 C 112.457031 114.5625 115.207031 112.144531 117.082031 109.210938 C 118.964844 106.261719 119.980469 102.769531 120.1875 99.257812 C 120.320312 96.734375 120.054688 94.1875 119.003906 92.011719 C 119.003906 92.011719 119 92.011719 119 92.011719 C 118.480469 90.917969 117.777344 89.917969 116.902344 89.121094 C 116.027344 88.324219 114.984375 87.710938 113.871094 87.40625 C 111.90625 86.828125 109.679688 87.25 107.601562 87.984375 C 105.515625 88.742188 103.496094 89.886719 101.289062 90.804688 C 100.558594 91.113281 99.746094 91.402344 98.847656 91.519531 C 97.9375 91.644531 96.941406 91.507812 96.050781 91 C 95.496094 90.664062 95.046875 90.199219 94.734375 89.660156 C 94.417969 89.125 94.230469 88.535156 94.167969 87.9375 C 94.054688 86.742188 94.363281 85.589844 94.925781 84.625 C 96.050781 82.722656 97.789062 81.519531 99.21875 80.332031 C 99.925781 79.726562 100.574219 79.109375 101.039062 78.410156 C 101.5 77.714844 101.824219 76.9375 101.828125 76.191406 C 101.835938 75.816406 101.78125 75.445312 101.648438 75.117188 C 101.519531 74.789062 101.320312 74.492188 101.074219 74.273438 C 100.828125 74.058594 100.523438 73.902344 100.222656 73.851562 C 99.921875 73.796875 99.597656 73.832031 99.34375 73.953125 C 99.027344 74.085938 98.75 74.410156 98.550781 74.777344 C 98.351562 75.152344 98.257812 75.625 98.210938 76.128906 C 98.121094 77.136719 98.328125 78.320312 98.203125 79.644531 C 98 81.382812 97.242188 82.921875 96.378906 84.253906 C 95.527344 85.597656 94.59375 86.792969 93.941406 88.058594 C 93.304688 89.324219 92.871094 90.691406 93.097656 91.933594 C 93.199219 92.550781 93.433594 93.148438 93.808594 93.601562 C 94.179688 94.050781 94.691406 94.402344 95.222656 94.519531 C 95.867188 94.683594 96.628906 94.511719 97.246094 94.140625 C 97.871094 93.761719 98.367188 93.128906 98.703125 92.417969 C 99.398438 90.988281 99.289062 89.183594 99.085938 87.386719 C 98.839844 85.574219 98.460938 83.632812 98.707031 81.589844 C 98.832031 80.566406 99.15625 79.53125 99.730469 78.605469 C 100.3125 77.671875 101.179688 76.898438 102.25 76.46875 C 103.074219 76.15625 103.945312 76.070312 104.773438 76.164062 C 105.597656 76.253906 106.375 76.484375 107.085938 76.789062 C 108.515625 77.398438 109.722656 78.222656 110.933594 78.792969 C 112.953125 79.75 115.234375 80.15625 117.457031 79.976562 C 119.6875 79.796875 121.871094 79.019531 123.722656 77.769531 C 125.578125 76.519531 127.113281 74.78125 128.136719 72.792969 C 129.164062 70.800781 129.6875 68.542969 129.652344 66.304688 C 129.597656 61.820312 127.179688 57.402344 123.519531 54.839844 C 119.832031 52.246094 114.882812 51.503906 110.578125 52.765625 C 107.457031 53.675781 104.648438 55.59375 102.515625 58.058594 C 100.367188 60.535156 98.886719 63.582031 98.078125 66.769531 C 97.652344 68.53125 97.398438 70.320312 97.871094 71.902344 C 98.097656 72.695312 98.476562 73.433594 99.019531 74 C 99.554688 74.5625 100.253906 74.980469 100.984375 75.109375 C 101.679688 75.246094 102.445312 75.125 103.097656 74.804688 C 103.753906 74.484375 104.316406 73.941406 104.699219 73.300781 C 105.082031 72.660156 105.289062 71.894531 105.304688 71.128906 C 105.324219 70.359375 105.148438 69.578125 104.828125 68.859375 C 104.191406 67.421875 102.902344 66.269531 101.433594 65.546875 C 99.949219 64.820312 98.238281 64.535156 96.519531 64.5 C 93.824219 64.449219 91 65.0625 88.035156 64.886719 C 86.546875 64.796875 85.027344 64.472656 83.640625 63.769531 C 82.238281 63.066406 81.023438 61.921875 80.335938 60.449219 C 79.882812 59.449219 79.703125 58.363281 79.746094 57.304688 C 79.789062 56.25 80.03125 55.230469 80.390625 54.277344 C 81.117188 52.378906 82.242188 50.75 83.261719 49.175781 C 84.265625 47.589844 85.207031 46.003906 85.546875 44.316406 C 85.71875 43.476562 85.757812 42.613281 85.597656 41.808594 C 85.4375 41.007812 85.089844 40.242188 84.5625 39.664062 C 83.871094 38.878906 82.804688 38.402344 81.710938 38.242188 C 80.605469 38.082031 79.429688 38.265625 78.308594 38.625 C 76.042969 39.34375 74 40.878906 71.671875 42.085938 C 69.691406 43.113281 67.636719 43.84375 65.710938 44.695312 C 63.777344 45.5625 61.929688 46.550781 60.523438 47.96875 C 59.816406 48.671875 59.214844 49.476562 58.800781 50.351562 C 58.390625 51.226562 58.148438 52.183594 58.160156 53.125 C 58.171875 54.0625 58.421875 55.003906 58.917969 55.769531 C 59.410156 56.53125 60.148438 57.152344 60.980469 57.4375 C 61.664062 57.6875 62.457031 57.714844 63.277344 57.671875 C 66.640625 57.472656 69.914062 55.726562 71.9375 53.074219 C 73.984375 50.398438 74.785156 46.777344 74.058594 43.519531 C 73.335938 40.234375 71.058594 37.292969 68.082031 35.78125 C 65.085938 34.25 61.355469 34.152344 58.3125 35.515625 C 56.527344 36.304688 54.957031 37.578125 53.660156 39.074219 C 52.355469 40.578125 51.328125 42.328125 50.476562 44.160156 C 49.296875 46.722656 48.46875 49.453125 48.628906 52.144531 C 48.703125 53.5 49.015625 54.832031 49.605469 56.019531 C 50.199219 57.207031 51.0625 58.257812 52.136719 58.988281 C 53.089844 59.644531 54.21875 60.054688 55.375 60.183594 C 56.53125 60.316406 57.726562 60.167969 58.828125 59.773438 C 61.035156 58.992188 62.855469 57.15625 63.769531 54.992188 C 64.84375 52.457031 64.6875 49.429688 63.53125 46.921875 C 62.367188 44.386719 60.179688 42.34375 57.640625 41.160156 C 55.398438 40.113281 52.855469 39.722656 50.367188 39.859375 C 47.855469 39.996094 45.382812 40.675781 43.0625 41.679688 C 38.378906 43.691406 34.324219 47.058594 30.382812 50.367188 C 28.484375 51.96875 26.621094 53.550781 25.007812 55.339844 C 23.390625 57.144531 22.019531 59.148438 21.253906 61.363281 C 20.484375 63.589844 20.3125 66.042969 21.042969 68.207031 C 21.410156 69.292969 21.988281 70.308594 22.757812 71.136719 C 23.53125 71.964844 24.496094 72.617188 25.550781 72.980469 C 27.367188 73.621094 29.472656 73.371094 31.308594 72.609375 C 33.164062 71.839844 34.789062 70.519531 36.25 69.054688 C 42.105469 63.183594 45.046875 54.945312 47.257812 47.058594 C 48.222656 43.582031 49.082031 40.097656 50.515625 36.753906 C 51.957031 33.367188 54.046875 30.179688 57.011719 27.953125 C 59.570312 26.039062 62.738281 24.957031 65.917969 25.03125 C 69.140625 25.113281 72.304688 26.4375 74.519531 28.742188 C 75.882812 30.175781 76.851562 31.910156 77.507812 33.710938 C 78.171875 35.527344 78.554688 37.40625 78.828125 39.257812 C 79.398438 43.042969 79.570312 46.726562 80.859375 50.09375 C 81.5 51.78125 82.40625 53.363281 83.640625 54.609375 C 84.886719 55.859375 86.46875 56.785156 88.160156 57.066406 C 89.855469 57.347656 91.6875 56.980469 92.996094 55.945312 C 93.660156 55.425781 94.199219 54.75 94.535156 53.992188 C 94.867188 53.234375 95.003906 52.382812 94.894531 51.570312 C 94.78125 50.574219 94.269531 49.605469 93.75 48.609375 C 93.207031 47.613281 92.632812 46.550781 92.386719 45.324219 C 92.191406 44.269531 92.28125 43.175781 92.636719 42.175781 C 92.992188 41.167969 93.597656 40.265625 94.375 39.554688 C 95.945312 38.117188 98.132812 37.496094 100.195312 37.746094 C 102.28125 38.003906 104.1875 39.082031 105.554688 40.601562 C 106.9375 42.136719 107.785156 44.078125 108.113281 46.0625 C 108.742188 49.964844 107.507812 53.867188 105.777344 57.195312 C 104.015625 60.613281 101.773438 63.648438 100.09375 66.886719 C 97.96875 70.972656 96.621094 75.480469 94.082031 79.355469 C 92.777344 81.339844 91.152344 83.128906 89.15625 84.414062 C 87.121094 85.726562 84.691406 86.445312 82.289062 86.230469 C 79.464844 85.964844 76.867188 84.367188 75.328125 82.070312 C 73.753906 79.71875 73.316406 76.730469 74.042969 74.074219 C 74.511719 72.363281 75.441406 70.804688 76.679688 69.574219 C 77.941406 68.332031 79.507812 67.433594 81.1875 66.964844 C 84.628906 66.003906 88.402344 66.914062 91.058594 69.097656 C 92.519531 70.304688 93.648438 71.855469 94.410156 73.539062 C 95.191406 75.25 95.605469 77.089844 95.726562 78.914062 C 95.976562 82.660156 95.042969 86.339844 93.757812 89.65625 C 92.175781 93.78125 89.894531 97.621094 86.429688 100.109375 C 83.742188 102.023438 80.53125 102.980469 77.414062 103.261719 C 74.164062 103.558594 70.929688 103.179688 67.90625 102.574219 C 64.800781 101.953125 61.570312 101.023438 58.683594 100.296875 C 55.523438 99.5 52.503906 98.863281 49.453125 98.6875 C 47.332031 98.566406 45.222656 98.660156 43.148438 98.5625 C 40.964844 98.457031 38.832031 98.125 36.90625 97.242188 C 34.878906 96.3125 33.1875 94.71875 32.429688 92.726562 C 32.039062 91.683594 31.921875 90.554688 32.113281 89.484375 C 32.3125 88.382812 32.851562 87.359375 33.648438 86.609375 C 34.257812 86.035156 35 85.632812 35.773438 85.410156 C 36.570312 85.179688 37.398438 85.125 38.195312 85.21875 C 39.847656 85.410156 41.34375 86.191406 42.539062 87.167969 C 44.96875 89.148438 46.796875 92.445312 48.386719 94.527344 C 51.765625 98.957031 56.035156 101.578125 59.773438 102.976562 C 64.140625 104.617188 68.042969 104.703125 70.335938 104.582031 C 72.753906 104.449219 73.960938 104.136719 73.964844 104.160156 C 73.96875 104.183594 72.773438 104.546875 70.347656 104.722656 C 68.042969 104.894531 64.109375 104.859375 59.671875 103.246094 C 55.878906 101.863281 51.535156 99.25 48.066406 94.773438 C 46.429688 92.664062 44.597656 89.394531 42.25 87.523438 C 41.09375 86.601562 39.675781 85.863281 38.140625 85.699219 C 37.402344 85.621094 36.640625 85.671875 35.917969 85.886719 C 35.210938 86.097656 34.539062 86.464844 34 86.980469 C 33.292969 87.648438 32.808594 88.582031 32.632812 89.578125 C 32.460938 90.546875 32.578125 91.582031 32.941406 92.53125 C 33.628906 94.367188 35.234375 95.839844 37.144531 96.71875 C 38.972656 97.558594 41.035156 97.863281 43.179688 97.960938 C 45.214844 98.050781 47.324219 97.945312 49.488281 98.0625 C 52.601562 98.230469 55.667969 98.859375 58.84375 99.648438 C 61.75 100.371094 64.976562 101.28125 68.042969 101.882812 C 71.03125 102.46875 74.199219 102.832031 77.347656 102.53125 C 80.359375 102.238281 83.445312 101.316406 85.980469 99.488281 C 89.273438 97.132812 91.445312 93.410156 93 89.367188 C 94.242188 86.105469 95.144531 82.539062 94.886719 78.972656 C 94.761719 77.234375 94.367188 75.496094 93.628906 73.894531 C 92.90625 72.324219 91.851562 70.878906 90.5 69.773438 C 88.066406 67.777344 84.554688 66.941406 81.433594 67.832031 C 79.902344 68.265625 78.464844 69.089844 77.328125 70.226562 C 76.203125 71.34375 75.359375 72.769531 74.941406 74.316406 C 74.289062 76.710938 74.699219 79.441406 76.117188 81.542969 C 77.496094 83.59375 79.863281 85.042969 82.378906 85.265625 C 84.523438 85.46875 86.746094 84.789062 88.621094 83.585938 C 90.472656 82.398438 91.992188 80.703125 93.242188 78.804688 C 95.679688 75.097656 96.996094 70.621094 99.171875 66.410156 C 100.898438 63.074219 103.132812 60.03125 104.832031 56.710938 C 106.472656 53.476562 107.664062 49.789062 107.042969 46.242188 C 106.734375 44.441406 105.96875 42.6875 104.742188 41.335938 C 103.53125 40.007812 101.847656 39.054688 100.066406 38.847656 C 98.308594 38.644531 96.421875 39.175781 95.132812 40.375 C 94.492188 40.972656 93.988281 41.722656 93.699219 42.546875 C 93.414062 43.367188 93.339844 44.265625 93.503906 45.113281 C 93.679688 46.109375 94.21875 47.0625 94.753906 48.074219 C 95.300781 49.070312 95.851562 50.167969 96.03125 51.421875 C 96.167969 52.453125 96.007812 53.507812 95.589844 54.457031 C 95.171875 55.398438 94.519531 56.226562 93.710938 56.855469 C 92.09375 58.105469 89.960938 58.558594 87.964844 58.214844 C 85.992188 57.878906 84.191406 56.84375 82.800781 55.433594 C 81.425781 54.039062 80.429688 52.324219 79.746094 50.511719 C 78.386719 46.914062 78.1875 43.144531 77.632812 39.4375 C 77.355469 37.628906 76.992188 35.828125 76.363281 34.132812 C 75.738281 32.457031 74.855469 30.863281 73.628906 29.59375 C 71.667969 27.539062 68.785156 26.347656 65.886719 26.277344 C 63.015625 26.203125 60.113281 27.207031 57.769531 28.960938 C 55.035156 30.992188 53.085938 34.011719 51.691406 37.253906 C 50.3125 40.472656 49.476562 43.902344 48.507812 47.402344 C 46.320312 55.371094 43.289062 63.800781 37.199219 69.992188 C 35.679688 71.542969 33.914062 72.960938 31.832031 73.847656 C 29.757812 74.738281 27.332031 75.003906 25.109375 74.257812 C 23.828125 73.816406 22.675781 73.046875 21.761719 72.058594 C 20.847656 71.078125 20.171875 69.898438 19.75 68.636719 C 18.917969 66.125 19.085938 63.378906 19.953125 60.914062 C 20.808594 58.472656 22.269531 56.304688 23.976562 54.414062 C 25.671875 52.535156 27.578125 50.90625 29.480469 49.300781 C 33.414062 45.96875 37.578125 42.527344 42.496094 40.378906 C 44.9375 39.316406 47.574219 38.59375 50.285156 38.433594 C 52.980469 38.273438 55.75 38.707031 58.25 39.855469 C 61.082031 41.164062 63.507812 43.4375 64.851562 46.3125 C 66.179688 49.171875 66.351562 52.589844 65.117188 55.554688 C 64.058594 58.09375 61.957031 60.203125 59.324219 61.160156 C 58.019531 61.628906 56.601562 61.804688 55.207031 61.652344 C 53.816406 61.496094 52.464844 61.003906 51.300781 60.210938 C 49.996094 59.316406 48.964844 58.078125 48.273438 56.675781 C 47.585938 55.285156 47.222656 53.757812 47.136719 52.226562 C 46.980469 49.183594 47.855469 46.21875 49.109375 43.53125 C 49.996094 41.605469 51.101562 39.734375 52.515625 38.089844 C 53.925781 36.445312 55.667969 35.042969 57.691406 34.132812 C 61.175781 32.578125 65.34375 32.675781 68.777344 34.417969 C 72.175781 36.152344 74.726562 39.433594 75.566406 43.1875 C 76.390625 46.90625 75.503906 50.957031 73.175781 54.015625 C 70.859375 57.042969 67.210938 58.992188 63.371094 59.234375 C 62.441406 59.300781 61.441406 59.246094 60.464844 58.917969 C 59.269531 58.496094 58.261719 57.664062 57.589844 56.613281 C 56.929688 55.570312 56.59375 54.351562 56.585938 53.140625 C 56.578125 51.929688 56.867188 50.746094 57.375 49.675781 C 57.882812 48.613281 58.585938 47.664062 59.40625 46.847656 C 61.042969 45.230469 63.050781 44.132812 65.066406 43.246094 C 67.066406 42.359375 69.085938 41.640625 70.933594 40.671875 C 73.09375 39.539062 75.234375 37.960938 77.808594 37.101562 C 79.101562 36.671875 80.511719 36.46875 81.929688 36.652344 C 83.351562 36.839844 84.742188 37.484375 85.757812 38.585938 C 86.503906 39.417969 86.980469 40.441406 87.183594 41.5 C 87.382812 42.558594 87.34375 43.628906 87.128906 44.648438 C 86.691406 46.671875 85.675781 48.433594 84.625 50.050781 C 83.597656 51.664062 82.523438 53.195312 81.914062 54.851562 C 81.609375 55.675781 81.402344 56.523438 81.375 57.367188 C 81.351562 58.203125 81.480469 59.042969 81.820312 59.769531 C 82.300781 60.855469 83.273438 61.738281 84.386719 62.316406 C 85.503906 62.898438 86.808594 63.160156 88.140625 63.25 C 90.792969 63.425781 93.589844 62.808594 96.550781 62.851562 C 98.4375 62.878906 100.378906 63.214844 102.152344 64.0625 C 103.929688 64.90625 105.484375 66.324219 106.339844 68.179688 C 106.761719 69.105469 106.988281 70.125 106.964844 71.164062 C 106.945312 72.199219 106.667969 73.234375 106.132812 74.148438 C 105.59375 75.058594 104.800781 75.816406 103.835938 76.296875 C 102.871094 76.773438 101.757812 76.945312 100.675781 76.75 C 99.558594 76.53125 98.558594 75.949219 97.804688 75.144531 C 97.054688 74.347656 96.542969 73.375 96.257812 72.355469 C 95.710938 70.324219 95.957031 68.246094 96.449219 66.359375 C 97.308594 62.941406 98.902344 59.667969 101.238281 56.957031 C 103.5625 54.261719 106.636719 52.164062 110.101562 51.140625 C 114.910156 49.730469 120.347656 50.546875 124.5 53.445312 C 128.617188 56.332031 131.285156 61.203125 131.371094 66.28125 C 131.410156 68.800781 130.828125 71.328125 129.667969 73.582031 C 128.515625 75.828125 126.792969 77.777344 124.691406 79.203125 C 122.59375 80.617188 120.132812 81.492188 117.597656 81.703125 C 115.070312 81.910156 112.492188 81.453125 110.1875 80.363281 C 108.8125 79.710938 107.628906 78.898438 106.410156 78.394531 C 105.804688 78.144531 105.195312 77.953125 104.589844 77.894531 C 103.992188 77.839844 103.394531 77.886719 102.882812 78.09375 C 102.214844 78.34375 101.628906 78.886719 101.210938 79.535156 C 100.792969 80.191406 100.554688 80.988281 100.441406 81.8125 C 100.210938 83.472656 100.589844 85.261719 100.824219 87.160156 C 101.097656 89.058594 101.160156 91.175781 100.300781 93.148438 C 99.855469 94.132812 99.136719 95.019531 98.175781 95.632812 C 97.207031 96.246094 95.996094 96.492188 94.820312 96.234375 C 93.863281 96 93.03125 95.449219 92.4375 94.707031 C 91.847656 93.972656 91.488281 93.101562 91.351562 92.207031 C 91.101562 90.425781 91.589844 88.699219 92.371094 87.242188 C 93.132812 85.792969 94.089844 84.554688 94.882812 83.304688 C 95.65625 82.058594 96.324219 80.773438 96.4375 79.460938 C 96.550781 78.46875 96.339844 77.300781 96.4375 75.988281 C 96.484375 75.328125 96.636719 74.632812 96.964844 73.972656 C 97.296875 73.300781 97.847656 72.710938 98.585938 72.347656 C 99.207031 72.058594 99.890625 71.980469 100.542969 72.101562 C 101.191406 72.222656 101.78125 72.519531 102.257812 72.945312 C 102.730469 73.371094 103.085938 73.898438 103.308594 74.46875 C 103.53125 75.042969 103.628906 75.640625 103.609375 76.234375 C 103.566406 77.414062 103.144531 78.507812 102.519531 79.410156 C 101.902344 80.308594 101.144531 81.046875 100.375 81.691406 C 98.867188 83 97.261719 84.042969 96.484375 85.503906 C 96.09375 86.21875 95.855469 87.015625 95.949219 87.742188 C 95.992188 88.105469 96.101562 88.457031 96.277344 88.75 C 96.453125 89.042969 96.695312 89.300781 96.972656 89.460938 C 97.398438 89.742188 98.015625 89.796875 98.632812 89.738281 C 99.257812 89.671875 99.910156 89.425781 100.597656 89.148438 C 102.667969 88.289062 104.710938 87.132812 106.984375 86.296875 C 109.253906 85.441406 111.84375 85.003906 114.351562 85.667969 C 115.769531 86.0625 117.058594 86.8125 118.125 87.789062 C 119.1875 88.765625 120.027344 89.953125 120.636719 91.234375 C 121.839844 93.789062 122.167969 96.632812 122 99.363281 C 121.789062 103.15625 120.679688 106.9375 118.617188 110.1875 C 116.558594 113.425781 113.527344 116.085938 109.921875 117.542969 C 106.324219 118.996094 102.191406 119.171875 98.5 117.835938 C 94.816406 116.496094 91.699219 113.613281 90.234375 109.933594 C 89.363281 107.714844 89.125 105.464844 88.285156 103.617188 C 87.867188 102.699219 87.328125 101.855469 86.609375 101.28125 C 85.902344 100.710938 85.011719 100.34375 84.1875 100.417969 C 83.671875 100.441406 83.136719 100.644531 82.621094 100.921875 C 82.105469 101.203125 81.613281 101.597656 81.113281 102.027344 C 80.121094 102.90625 79.054688 103.96875 77.589844 104.644531 C 76.460938 105.136719 75.207031 105.292969 73.996094 105.097656 C 72.789062 104.902344 71.652344 104.371094 70.730469 103.578125 C 69.808594 102.785156 69.113281 101.757812 68.710938 100.617188 C 68.316406 99.476562 68.214844 98.25 68.414062 97.066406 C 68.820312 94.695312 70.378906 92.628906 72.5 91.527344 C 74.609375 90.441406 77.128906 90.324219 79.339844 91.128906 C 80.570312 91.578125 81.570312 92.214844 82.542969 92.523438 C 83.992188 93.011719 85.65625 92.90625 87.234375 92.492188 C 88.816406 92.066406 90.335938 91.28125 91.855469 90.429688 C 93.371094 89.574219 94.90625 88.628906 96.589844 87.863281 C 98.269531 87.09375 100.132812 86.539062 102.085938 86.523438 C 104.984375 86.53125 107.789062 87.824219 109.734375 89.941406 C 111.664062 92.050781 112.722656 94.867188 112.757812 97.703125 C 112.777344 100.035156 112.164062 102.308594 111.1875 104.359375 C 110.210938 106.402344 108.914062 108.242188 107.523438 109.949219 C 101.785156 117.023438 93.773438 122.609375 84.644531 124.335938 C 80.105469 125.183594 75.347656 125.042969 70.871094 123.75 C 66.410156 122.457031 62.257812 120 59.078125 116.558594 C 55.929688 113.113281 53.890625 108.984375 51.640625 105.140625 C 50.257812 102.839844 48.796875 100.582031 46.679688 99.355469 C 45.636719 98.738281 44.453125 98.351562 43.300781 98.375 C 42.160156 98.398438 41.003906 98.804688 40.234375 99.566406 C 39.730469 100.0625 39.355469 100.707031 39.253906 101.367188 C 39.152344 102.019531 39.285156 102.730469 39.652344 103.226562 C 39.929688 103.628906 40.378906 103.941406 40.871094 104.113281 C 41.363281 104.289062 41.933594 104.3125 42.476562 104.214844 C 43.578125 104.035156 44.59375 103.242188 45.363281 102.277344 C 46.136719 101.292969 46.640625 100.058594 47.105469 98.757812 C 47.558594 97.457031 47.960938 96.0625 48.582031 94.683594 C 50.261719 90.972656 53.535156 87.96875 57.511719 86.824219 C 59.492188 86.261719 61.613281 86.175781 63.640625 86.613281 C 65.667969 87.050781 67.578125 88.015625 69.121094 89.421875 C 70.664062 90.824219 71.804688 92.660156 72.359375 94.683594 C 72.910156 96.707031 72.851562 98.890625 72.15625 100.882812 C 71.457031 102.875 70.125 104.632812 68.363281 105.824219 C 66.605469 107.015625 64.449219 107.597656 62.316406 107.425781 C 60.441406 107.273438 58.625 106.53125 57.191406 105.292969 C 55.875 104.152344 54.925781 102.625 54.464844 100.953125 C 54.007812 99.28125 54.039062 97.496094 54.546875 95.84375 C 55.050781 94.195312 56.007812 92.707031 57.285156 91.554688 C 58.558594 90.402344 60.128906 89.601562 61.796875 89.226562 C 63.464844 88.851562 65.214844 88.902344 66.859375 89.355469 C 68.5 89.804688 70.015625 90.644531 71.277344 91.777344 C 73.789062 94.054688 75.175781 97.414062 75.117188 100.78125 C 75.070312 103.5625 74.058594 106.3125 72.238281 108.4375 C 70.414062 110.5625 67.8125 111.996094 65.015625 112.347656 C 61.425781 112.785156 57.726562 111.386719 55.277344 108.734375 C 52.847656 106.085938 51.75 102.351562 52.292969 98.808594 C 52.839844 95.277344 54.957031 92.074219 57.949219 90.125 C 60.933594 88.1875 64.667969 87.535156 68.140625 88.269531 C 70.453125 88.761719 72.613281 89.828125 74.4375 91.296875 C 76.257812 92.765625 77.746094 94.601562 78.855469 96.632812 C 80.628906 99.824219 81.457031 103.652344 80.671875 107.324219 C 80.273438 109.15625 79.453125 110.910156 78.234375 112.375 C 77.019531 113.835938 75.402344 114.976562 73.566406 115.585938 C 70.636719 116.535156 67.355469 116.027344 64.804688 114.347656 C 62.265625 112.667969 60.527344 109.953125 59.949219 106.996094 C 59.46875 104.546875 59.769531 101.957031 60.824219 99.683594 C 61.882812 97.410156 63.679688 95.5 65.902344 94.320312 C 67.773438 93.332031 69.925781 92.875 72.050781 93.0625 C 74.175781 93.253906 76.234375 94.097656 77.867188 95.496094 C 79.5 96.890625 80.65625 98.820312 81.085938 100.9375 C 81.085938 100.9375 81.085938 100.941406 81.085938 100.941406 C 81.511719 103.058594 81.183594 105.308594 80.128906 107.214844 C 78.6875 109.738281 76.203125 111.417969 73.589844 112.308594 C 70.996094 113.207031 68.316406 113.484375 65.742188 113.753906 C 60.117188 114.363281 54.382812 115.089844 48.585938 114.828125 C 44.796875 114.660156 40.945312 114.019531 37.351562 112.679688 C 35.453125 111.972656 33.621094 111.070312 31.914062 109.941406 C 29.921875 108.625 28.105469 106.976562 26.710938 104.976562 C 25.3125 102.96875 24.390625 100.597656 24.222656 98.113281 C 24.058594 95.285156 24.878906 92.496094 26.289062 90.125 C 27.695312 87.753906 29.621094 85.773438 31.726562 84.109375 C 35.9375 80.78125 40.769531 78.617188 44.875 75.664062 C 48.738281 72.894531 52.148438 69.316406 56.011719 66.546875 C 58.011719 65.105469 60.191406 63.839844 62.570312 62.996094 C 64.953125 62.148438 67.546875 61.769531 70.113281 62.109375 C 73.058594 62.5 75.867188 63.902344 77.882812 66.117188 C 79.902344 68.34375 81.023438 71.359375 80.824219 74.382812 C 80.640625 77 79.480469 79.488281 77.664062 81.347656 C 75.847656 83.207031 73.433594 84.417969 70.894531 84.835938 C 68.035156 85.304688 65.109375 84.8125 62.519531 83.667969 C 59.929688 82.527344 57.664062 80.796875 55.75 78.804688 C 54.273438 77.28125 52.957031 75.546875 52.039062 73.5625 C 51.113281 71.574219 50.652344 69.324219 50.921875 67.082031 C 51.1875 64.828125 52.28125 62.648438 54.089844 61.175781 C 55 60.441406 56.078125 59.914062 57.234375 59.664062 C 58.394531 59.417969 59.617188 59.464844 60.765625 59.828125 C 62.613281 60.4375 64.105469 61.808594 64.953125 63.488281 C 65.796875 65.164062 66.046875 67.0625 65.808594 68.859375 C 65.519531 71.097656 64.53125 73.207031 63.042969 74.875 C 61.550781 76.546875 59.597656 77.765625 57.46875 78.40625 C 55.339844 79.050781 53.070312 79.125 50.910156 78.675781 C 48.75 78.222656 46.722656 77.265625 44.988281 75.9375 C 43.242188 74.601562 41.78125 72.875 40.816406 70.875 C 39.851562 68.871094 39.425781 66.597656 39.675781 64.363281 C 39.929688 62.121094 40.890625 59.957031 42.464844 58.304688 C 44.046875 56.648438 46.226562 55.578125 48.535156 55.410156 C 50.257812 55.292969 51.984375 55.679688 53.496094 56.476562 C 55.003906 57.277344 56.28125 58.460938 57.210938 59.867188 C 58.136719 61.253906 58.726562 62.867188 58.875 64.546875 C 59.023438 66.230469 58.703125 67.957031 57.910156 69.472656 C 57.113281 70.992188 55.839844 72.257812 54.277344 73.011719 C 52.707031 73.765625 50.882812 73.960938 49.179688 73.511719 C 47.441406 73.035156 45.949219 71.933594 44.929688 70.503906 C 43.917969 69.078125 43.359375 67.390625 43.222656 65.699219 C 42.96875 62.3125 44.203125 59.074219 45.882812 56.34375 C 47.085938 54.347656 48.550781 52.480469 50.332031 50.917969 C 52.117188 49.347656 54.238281 48.121094 56.566406 47.472656 C 59.511719 46.660156 62.722656 46.855469 65.53125 48.082031 C 68.34375 49.320312 70.679688 51.59375 71.929688 54.40625 C 72.597656 55.933594 72.941406 57.515625 73.226562 59.027344 C 73.523438 60.550781 73.777344 62.023438 74.261719 63.363281 C 74.753906 64.695312 75.449219 65.9375 76.464844 66.757812 C 76.964844 67.171875 77.535156 67.492188 78.132812 67.664062 C 78.726562 67.832031 79.359375 67.871094 79.933594 67.738281 C 80.507812 67.613281 81.058594 67.3125 81.519531 66.90625 C 81.980469 66.5 82.347656 65.96875 82.609375 65.382812 C 83.140625 64.214844 83.171875 62.804688 82.917969 61.445312 C 82.417969 58.707031 80.570312 56.207031 79.265625 53.296875 C 77.0625 48.449219 76.730469 42.660156 78.949219 37.753906 C 80.070312 35.296875 81.832031 33.125 84.0625 31.570312 C 86.300781 30.011719 89 29.117188 91.742188 29.109375 C 95.734375 29.113281 99.582031 31.015625 102.128906 34.019531 C 104.234375 36.5 105.460938 39.636719 105.734375 42.839844 C 106.003906 46.046875 105.351562 49.28125 104.003906 52.164062 C 101.277344 57.933594 95.972656 62.117188 90.164062 64.398438 C 87.621094 65.421875 84.828125 66.117188 81.96875 65.898438 C 80.539062 65.785156 79.109375 65.414062 77.800781 64.75 C 76.488281 64.085938 75.320312 63.105469 74.46875 61.875 C 73.421875 60.332031 72.917969 58.507812 72.894531 56.707031 C 72.867188 54.910156 73.257812 53.160156 73.886719 51.542969 C 75.148438 48.3125 77.214844 45.601562 78.902344 42.867188 C 80.289062 40.605469 81.527344 38.152344 83.285156 35.9375 C 84.164062 34.828125 85.183594 33.796875 86.371094 32.953125 C 87.558594 32.101562 88.929688 31.464844 90.410156 31.175781 C 92.679688 30.75 95.027344 31.195312 97.019531 32.246094 C 99.007812 33.296875 100.648438 34.875 101.890625 36.671875 C 104.363281 40.277344 105.367188 44.539062 106.242188 48.566406 C 107.367188 53.613281 108.46875 58.753906 108.402344 64.03125 C 108.347656 69.347656 106.914062 74.820312 103.464844 78.992188 C 100.589844 82.414062 96.542969 84.667969 92.292969 85.738281 C 88.027344 86.816406 83.585938 86.800781 79.320312 86.183594 C 72.402344 85.207031 65.527344 82.484375 60.636719 77.414062 C 59.253906 75.972656 58.046875 74.339844 57.160156 72.515625 C 56.273438 70.683594 55.738281 68.660156 55.71875 66.59375 C 55.699219 64.515625 56.234375 62.421875 57.355469 60.636719 C 58.484375 58.847656 60.21875 57.429688 62.261719 56.769531 C 63.902344 56.257812 65.632812 56.238281 67.25 56.539062 C 70.917969 57.214844 74.191406 59.414062 76.332031 62.398438 C 78.480469 65.390625 79.515625 69.074219 79.441406 72.707031 C 79.363281 76.347656 78.234375 79.902344 76.390625 82.984375 C 74.539062 86.078125 72.011719 88.710938 69.160156 90.828125 C 67.144531 92.335938 64.898438 93.617188 62.429688 94.359375 C 59.949219 95.101562 57.230469 95.226562 54.699219 94.457031 C 52.605469 93.808594 50.738281 92.558594 49.289062 90.960938 C 47.835938 89.359375 46.792969 87.433594 46.164062 85.402344 C 44.910156 81.320312 45.246094 76.960938 46.367188 72.984375 C 48.292969 66.109375 52.304688 60.101562 56.542969 54.632812 C 61.171875 48.617188 66.449219 42.828125 73.351562 39.464844 C 76.832031 37.773438 80.6875 36.785156 84.578125 36.863281 C 88.496094 36.9375 92.414062 38.160156 95.546875 40.539062 C 97.777344 42.246094 99.558594 44.519531 100.652344 47.09375 C 101.753906 49.679688 102.144531 52.554688 101.757812 55.332031 C 101.339844 58.300781 100.066406 61.082031 98.28125 63.421875 C 96.488281 65.773438 94.214844 67.699219 91.75 69.226562 C 86.789062 72.300781 81.140625 73.867188 75.734375 75.375 C 72.660156 76.246094 69.492188 77.128906 66.171875 77.167969 C 64.507812 77.1875 62.816406 76.96875 61.210938 76.425781 C 61.210938 76.425781 61.207031 76.425781 61.207031 76.425781 C 59.59375 75.882812 58.078125 74.988281 56.867188 73.75 C 55.734375 72.578125 54.917969 71.152344 54.410156 69.648438 C 53.902344 68.140625 53.679688 66.566406 53.664062 65.011719 C 53.640625 61.898438 54.371094 58.898438 55.089844 56.023438 C 55.742188 53.363281 56.433594 50.625 57.792969 48.113281 C 58.480469 46.851562 59.34375 45.667969 60.414062 44.667969 C 61.488281 43.664062 62.78125 42.871094 64.210938 42.421875 C 65.996094 41.878906 67.902344 41.910156 69.65625 42.394531 C 71.417969 42.878906 73.023438 43.78125 74.394531 44.921875 C 77.132812 47.214844 78.957031 50.3125 80.433594 53.382812 C 82.0625 56.722656 83.425781 60.222656 84.136719 63.894531 C 84.855469 67.601562 84.851562 71.480469 83.785156 75.121094 C 83.308594 76.753906 82.597656 78.34375 81.585938 79.753906 C 80.566406 81.167969 79.222656 82.375 77.628906 83.15625 C 76.023438 83.941406 74.167969 84.238281 72.386719 83.890625 C 70.589844 83.539062 68.9375 82.484375 67.929688 80.925781 C 67.070312 79.566406 66.753906 77.949219 66.898438 76.40625 C 67.042969 74.863281 67.59375 73.410156 68.363281 72.128906 C 69.910156 69.570312 72.179688 67.664062 74.175781 65.75 C 76.398438 63.597656 78.503906 61.210938 81.234375 59.449219 C 82.609375 58.570312 84.136719 57.882812 85.773438 57.554688 C 87.417969 57.226562 89.167969 57.308594 90.773438 57.917969 C 92.207031 58.472656 93.445312 59.421875 94.398438 60.578125 C 95.351562 61.738281 96.035156 63.082031 96.484375 64.472656 C 97.382812 67.269531 97.421875 70.191406 97.351562 72.972656 C 97.289062 76.140625 97.105469 79.324219 96.429688 82.445312 C 95.746094 85.601562 94.511719 88.675781 92.515625 91.25 C 90.496094 93.847656 87.636719 95.847656 84.394531 96.542969 C 82.761719 96.886719 81.050781 96.882812 79.421875 96.492188 C 77.785156 96.09375 76.246094 95.292969 75.003906 94.148438 C 73.691406 92.921875 72.761719 91.378906 72.113281 89.777344 C 71.460938 88.175781 71.050781 86.519531 70.671875 84.90625 C 70.257812 83.160156 69.855469 81.378906 69.746094 79.527344 C 69.632812 77.664062 69.855469 75.734375 70.644531 73.984375 C 71.441406 72.210938 72.894531 70.695312 74.765625 70 C 75.707031 69.660156 76.738281 69.550781 77.738281 69.714844 C 78.746094 69.882812 79.703125 70.34375 80.453125 71.054688 C 81.1875 71.757812 81.683594 72.652344 81.957031 73.585938 C 82.230469 74.515625 82.3125 75.472656 82.28125 76.398438 C 82.21875 78.253906 81.78125 79.980469 81.675781 81.644531 C 81.621094 82.480469 81.640625 83.304688 81.816406 84.078125 C 81.992188 84.851562 82.308594 85.585938 82.792969 86.152344 C 83.28125 86.714844 83.9375 87.144531 84.628906 87.261719 C 85.3125 87.382812 86.074219 87.222656 86.5625 86.789062 C 87.078125 86.378906 87.355469 85.648438 87.46875 84.902344 C 87.578125 84.144531 87.476562 83.316406 87.386719 82.449219 C 87.289062 81.578125 87.199219 80.648438 87.335938 79.679688 C 87.464844 78.695312 87.917969 77.699219 88.753906 77.007812 C 89.273438 76.597656 89.894531 76.355469 90.535156 76.285156 C 91.171875 76.21875 91.808594 76.3125 92.386719 76.53125 C 93.546875 76.988281 94.445312 77.875 95.023438 78.890625 C 95.609375 79.90625 95.925781 81.050781 95.976562 82.203125 C 96.027344 83.359375 95.820312 84.507812 95.40625 85.570312 C 94.566406 87.699219 92.953125 89.429688 91.0625 90.597656 C 89.160156 91.773438 87.011719 92.433594 84.875 92.785156 C 82.722656 93.140625 80.558594 93.210938 78.449219 93.257812 C 74.042969 93.367188 69.652344 93.390625 65.339844 92.519531 C 60.945312 91.632812 56.695312 89.714844 53.628906 86.480469 C 51.039062 83.746094 49.441406 80.007812 49.71875 76.261719 C 49.867188 74.367188 50.503906 72.507812 51.601562 70.957031 C 52.710938 69.390625 54.289062 68.164062 56.101562 67.53125 C 57.652344 66.996094 59.324219 66.90625 60.90625 67.183594 C 62.503906 67.46875 64.007812 68.105469 65.335938 68.976562 C 68.015625 70.734375 69.96875 73.34375 71.429688 76.050781 C 72.613281 78.226562 73.542969 80.585938 73.78125 83.078125 C 74.027344 85.613281 73.453125 88.269531 71.886719 90.300781 C 70.726562 91.789062 69.050781 92.851562 67.210938 93.226562 C 65.347656 93.601562 63.359375 93.234375 61.785156 92.191406 C 60.1875 91.132812 59.085938 89.398438 58.84375 87.515625 C 58.605469 85.605469 59.285156 83.625 60.667969 82.300781 C 61.992188 81.046875 63.839844 80.460938 65.617188 80.59375 C 67.40625 80.726562 69.085938 81.527344 70.375 82.707031 C 71.539062 83.765625 72.410156 85.140625 72.839844 86.648438 C 73.277344 88.175781 73.238281 89.824219 72.710938 91.308594 C 72.171875 92.8125 71.128906 94.121094 69.769531 94.945312 C 68.394531 95.78125 66.722656 96.089844 65.15625 95.773438 C 63.597656 95.449219 62.222656 94.550781 61.234375 93.363281 C 60.238281 92.171875 59.613281 90.722656 59.300781 89.25 C 58.675781 86.261719 59.226562 83.214844 59.832031 80.410156 C 60.824219 75.695312 62.054688 71.070312 64.792969 67.230469 C 66.199219 65.261719 67.992188 63.578125 70.097656 62.449219 C 72.253906 61.292969 74.734375 60.769531 77.121094 61.089844 C 79.984375 61.484375 82.539062 63.0625 84.402344 65.101562 C 86.324219 67.203125 87.597656 69.765625 88.453125 72.34375 C 90.210938 77.574219 90.351562 83.148438 88.625 88.007812 C 87.710938 90.570312 86.289062 92.894531 84.46875 94.78125 C 82.570312 96.746094 80.242188 98.214844 77.75 99.03125 C 74.769531 100 71.601562 100.019531 68.738281 99.292969 C 65.699219 98.523438 62.996094 96.933594 60.867188 94.910156 C 58.175781 92.351562 56.386719 89.121094 55.382812 85.894531 C 54.277344 82.34375 54.054688 78.710938 54.324219 75.394531 C 55.011719 66.917969 58.867188 60.132812 62.878906 55.742188 C 67.652344 50.523438 73.066406 48.027344 76.324219 46.882812 C 79.773438 45.675781 81.660156 45.519531 81.664062 45.546875 Z M 81.664062 45.546875 " fill-opacity="1" fill-rule="nonzero"/></g></svg>