<svg xmlns="http://www.w3.org/2000/svg" xmlns:xlink="http://www.w3.org/1999/xlink" width="44" zoomAndPan="magnify" viewBox="0 0 33 32.999998" height="44" preserveAspectRatio="xMidYMid meet" version="1.0"><defs><clipPath id="ccf7124eb7"><path d="M 16.5 0 C 7.386719 0 0 7.386719 0 16.5 C 0 25.613281 7.386719 33 16.5 33 C 25.613281 33 33 25.613281 33 16.5 C 33 7.386719 25.613281 0 16.5 0 Z M 16.5 0 " clip-rule="nonzero"/></clipPath><clipPath id="f41b0a6497"><path d="M 6.601562 9.101562 L 26.101562 9.101562 L 26.101562 24 L 6.601562 24 Z M 6.601562 9.101562 " clip-rule="nonzero"/></clipPath></defs><g clip-path="url(#ccf7124eb7)"><path stroke-linecap="butt" transform="matrix(0.75, 0, 0, 0.75, 0.000001, -0.000001)" fill="none" stroke-linejoin="miter" d="M 22.000001 0.00000133333 C 9.848958 0.00000133333 -0.00000133333 9.848961 -0.00000133333 22.000004 C -0.00000133333 34.151046 9.848958 44.000006 22.000001 44.000006 C 34.151044 44.000006 44.000003 34.151046 44.000003 22.000004 C 44.000003 9.848961 34.151044 0.00000133333 22.000001 0.00000133333 Z M 22.000001 0.00000133333 " stroke="currentcolor" stroke-width="4" stroke-opacity="1" stroke-miterlimit="4"/></g><g clip-path="url(#f41b0a6497)"><path fill="currentcolor" d="M 16.316406 15.199219 C 9.332031 15.089844 6.9375 15.039062 6.800781 16.617188 C 6.664062 18.199219 8.546875 17.671875 16.621094 17.632812 C 24.699219 17.589844 26.238281 18.160156 26.273438 16.699219 C 26.308594 15.242188 24.050781 15.324219 16.316406 15.199219 Z M 16.246094 12.070312 C 21.449219 11.800781 23.214844 12.84375 23.214844 10.96875 C 23.214844 9.097656 20.421875 10.074219 17.226562 9.769531 C 11.464844 9.226562 9.855469 9.511719 9.84375 11.148438 C 9.839844 12.351562 11.757812 12.296875 16.246094 12.070312 Z M 16.761719 20.699219 C 11.777344 20.679688 9.839844 20.441406 9.84375 21.839844 C 9.847656 23.238281 11.015625 23.261719 14.410156 23.136719 C 18.96875 22.964844 23.363281 23.882812 23.246094 22.332031 C 23.128906 20.777344 21.429688 20.714844 16.761719 20.699219 Z M 16.761719 20.699219 " fill-opacity="1" fill-rule="nonzero"/></g></svg>