<svg xmlns="http://www.w3.org/2000/svg" xmlns:xlink="http://www.w3.org/1999/xlink" width="200" zoomAndPan="magnify" viewBox="0 0 150 149.999998" height="200" preserveAspectRatio="xMidYMid meet" version="1.0"><defs><clipPath id="601c099a77"><path d="M 12.15625 37 L 70 37 L 70 66 L 12.15625 66 Z M 12.15625 37 " clip-rule="nonzero"/></clipPath><clipPath id="ce32b1e2d9"><path d="M 12.15625 47 L 65 47 L 65 67 L 12.15625 67 Z M 12.15625 47 " clip-rule="nonzero"/></clipPath><clipPath id="68ab80094f"><path d="M 89 25 L 138.15625 25 L 138.15625 41 L 89 41 Z M 89 25 " clip-rule="nonzero"/></clipPath></defs><path fill="currentcolor" d="M 84.757812 46.980469 C 84.566406 48.230469 83.523438 49.226562 82.335938 49.660156 C 81.148438 50.097656 79.839844 50.050781 78.589844 49.863281 C 77.214844 51.992188 79.058594 55.058594 77.855469 57.289062 C 77.464844 58.011719 76.800781 58.535156 76.042969 58.863281 C 75.757812 58.992188 75.460938 59.085938 75.164062 59.160156 C 74.066406 59.417969 72.925781 59.367188 71.796875 59.3125 C 72.480469 58.332031 72.800781 57.078125 72.523438 55.917969 C 72.246094 54.757812 71.324219 53.742188 70.160156 53.488281 C 69 53.234375 67.667969 53.839844 67.210938 54.941406 C 66.902344 55.695312 67.003906 56.546875 67.007812 57.363281 C 67.007812 58.175781 66.855469 59.085938 66.207031 59.578125 C 65.515625 60.117188 64.542969 59.933594 63.675781 59.808594 C 62.675781 59.671875 59.234375 59.921875 59.234375 59.921875 L 58.519531 45.949219 C 58.441406 44.039062 58.359375 42.125 58.28125 40.214844 C 61.386719 39.46875 64.59375 39.148438 67.78125 39.28125 C 67.789062 40.195312 67.800781 41.140625 68.171875 41.972656 C 68.539062 42.808594 69.367188 43.511719 70.277344 43.441406 C 71.207031 43.375 71.925781 42.511719 72.140625 41.601562 C 72.359375 40.695312 72.1875 39.742188 72.015625 38.820312 C 74.21875 38.628906 76.417969 38.4375 78.621094 38.242188 L 78.789062 38.226562 C 78.824219 39.71875 78.875 42.058594 78.90625 43.3125 C 80.222656 42.941406 81.699219 42.949219 82.90625 43.597656 C 84.113281 44.246094 84.96875 45.625 84.757812 46.980469 Z M 84.757812 46.980469 " fill-opacity="1" fill-rule="nonzero"/><path fill="#ffffff" d="M 100.125 54.414062 C 100.128906 55.339844 99.910156 56.292969 99.394531 57.046875 C 99.269531 57.21875 99.136719 57.382812 98.984375 57.53125 C 98.0625 58.425781 96.6875 58.675781 95.40625 58.609375 C 94.125 58.539062 92.875 58.199219 91.597656 58.082031 C 92.417969 56.347656 91.398438 54.003906 89.570312 53.429688 C 87.742188 52.855469 85.5625 54.195312 85.25 56.085938 C 85.15625 56.625 85.199219 57.1875 85.105469 57.726562 C 85.011719 58.273438 84.734375 58.832031 84.226562 59.042969 C 83.929688 59.167969 83.59375 59.15625 83.277344 59.144531 C 81.851562 59.082031 79.328125 58.992188 77.335938 58.914062 C 76.867188 58.898438 76.429688 58.878906 76.042969 58.863281 C 76.800781 58.535156 77.464844 58.011719 77.855469 57.289062 C 79.058594 55.058594 77.214844 51.992188 78.589844 49.863281 C 79.839844 50.050781 81.148438 50.097656 82.335938 49.660156 C 83.523438 49.226562 84.566406 48.230469 84.757812 46.980469 C 84.96875 45.625 84.113281 44.246094 82.90625 43.597656 C 81.699219 42.949219 80.222656 42.941406 78.90625 43.3125 C 78.875 42.058594 78.824219 39.71875 78.789062 38.226562 L 80.320312 38.0625 C 81.726562 38.09375 83.136719 38.125 84.542969 38.152344 C 85.066406 38.164062 85.632812 38.164062 86.042969 37.839844 C 86.769531 37.269531 86.554688 36.148438 86.628906 35.230469 C 86.777344 33.34375 88.648438 31.777344 90.527344 31.96875 C 92.40625 32.15625 93.722656 33.6875 93.699219 35.941406 C 93.6875 37.125 94.535156 46.457031 94.820312 47.644531 C 95.558594 50.75 98.527344 50.804688 99.488281 51.078125 C 99.800781 52.167969 100.113281 53.28125 100.125 54.414062 Z M 100.125 54.414062 " fill-opacity="1" fill-rule="nonzero"/><path fill="#ffffff" d="M 68.257812 82.628906 C 68.054688 83.140625 68.648438 83.574219 69.085938 83.910156 C 70.230469 84.785156 70.742188 86.398438 70.3125 87.773438 C 69.882812 89.144531 68.5 90.570312 67.101562 90.238281 C 65.332031 89.816406 58.5 92.058594 58.5 92.058594 C 57.753906 91.09375 54.023438 86.324219 53.277344 85.359375 C 54.429688 84.898438 55.429688 83.992188 55.851562 82.824219 C 56.273438 81.65625 56.046875 80.238281 55.171875 79.359375 C 54.296875 78.480469 52.777344 78.269531 51.773438 79 C 51.070312 79.503906 50.597656 80.414062 49.746094 80.558594 C 48.867188 80.707031 48.117188 79.964844 47.542969 79.285156 C 46.808594 78.429688 46.027344 77.347656 46.382812 76.277344 C 46.582031 75.6875 47.089844 75.261719 47.578125 74.871094 C 48.707031 73.964844 50.488281 72.628906 51.792969 71.605469 C 52.625 72.320312 53.5 73.007812 54.523438 73.394531 C 55.679688 73.835938 57.082031 73.824219 58.050781 73.066406 C 59.023438 72.300781 59.308594 70.675781 58.425781 69.808594 C 57.882812 69.277344 56.9375 68.96875 56.902344 68.203125 C 56.875 67.625 57.414062 67.203125 57.902344 66.886719 C 59.425781 65.894531 61.75 64.382812 63.484375 63.25 C 64.257812 64.582031 65.519531 66.683594 65.996094 67.550781 C 66.945312 66.992188 67.902344 66.429688 68.949219 66.097656 C 69.996094 65.761719 71.160156 65.667969 72.1875 66.050781 C 73.222656 66.429688 74.089844 67.347656 74.21875 68.441406 C 74.308594 69.265625 73.980469 70.101562 73.457031 70.742188 C 72.929688 71.386719 72.226562 71.855469 71.492188 72.246094 C 70.875 72.574219 70.144531 72.945312 70.015625 73.640625 C 69.910156 74.199219 70.257812 74.734375 70.589844 75.199219 C 71.261719 76.148438 72.644531 77.871094 73.601562 79.136719 C 72.132812 80.03125 70.019531 81.429688 68.78125 82.140625 C 68.570312 82.265625 68.34375 82.402344 68.257812 82.628906 Z M 68.257812 82.628906 " fill-opacity="1" fill-rule="nonzero"/><path fill="#ffffff" d="M 93.113281 81.984375 C 93.957031 83.242188 93.875 85.054688 92.917969 86.230469 C 91.957031 87.40625 90.199219 87.851562 88.796875 87.269531 C 87.394531 86.695312 86.457031 85.140625 86.605469 83.628906 C 86.667969 83 86.867188 82.273438 86.441406 81.808594 C 86.089844 81.421875 85.488281 81.4375 84.964844 81.480469 C 83.207031 81.628906 80 81.890625 77.855469 82.070312 C 77.824219 80.03125 77.769531 77.191406 77.738281 75.382812 C 79.195312 75.683594 80.789062 75.484375 82.023438 74.648438 C 83.257812 73.816406 84.0625 72.3125 83.878906 70.832031 C 83.691406 69.355469 82.410156 68.035156 80.925781 67.984375 C 79.910156 67.945312 78.730469 68.398438 77.984375 67.710938 C 77.5 67.261719 77.453125 66.527344 77.441406 65.867188 C 77.40625 64.011719 77.371094 60.929688 77.335938 58.914062 C 79.328125 58.992188 81.851562 59.082031 83.277344 59.144531 C 83.59375 59.15625 83.929688 59.167969 84.226562 59.042969 C 84.734375 58.832031 85.011719 58.273438 85.105469 57.726562 C 85.199219 57.1875 85.15625 56.625 85.25 56.085938 C 85.5625 54.195312 87.742188 52.855469 89.570312 53.429688 C 91.398438 54.003906 92.417969 56.347656 91.597656 58.082031 C 92.875 58.199219 94.125 58.539062 95.40625 58.609375 C 96.6875 58.675781 98.0625 58.425781 98.984375 57.53125 C 99.136719 57.382812 99.269531 57.21875 99.394531 57.046875 C 99.148438 59.703125 98.804688 63.554688 98.597656 65.734375 C 97.285156 65.238281 95.703125 65.355469 94.59375 66.21875 C 93.484375 67.082031 92.984375 68.726562 93.597656 69.988281 C 94.023438 70.867188 94.902344 71.457031 95.824219 71.761719 C 96.753906 72.066406 97.742188 72.117188 98.714844 72.164062 C 98.816406 73.171875 98.914062 74.175781 99.007812 75.179688 L 100.070312 80.523438 C 100.070312 80.523438 96.453125 80.597656 94.308594 80.597656 C 92.164062 80.597656 93.113281 81.984375 93.113281 81.984375 Z M 93.113281 81.984375 " fill-opacity="1" fill-rule="nonzero"/><g clip-path="url(#601c099a77)"><path fill="#ffffff" d="M 68.472656 47.902344 C 68.023438 48.402344 67.417969 48.722656 66.816406 49.015625 C 65.878906 49.46875 64.914062 49.867188 63.929688 50.210938 C 63.964844 50.425781 63.996094 50.664062 64.019531 50.921875 C 64.085938 51.644531 63.894531 52.351562 63.527344 52.976562 C 63.675781 53.324219 63.808594 53.738281 63.796875 54.089844 C 63.773438 54.925781 63.515625 55.75 63.074219 56.464844 C 63.253906 56.78125 63.4375 57.167969 63.507812 57.515625 C 63.921875 59.566406 62.226562 61.527344 60.304688 62.351562 C 58.382812 63.175781 56.230469 63.226562 54.183594 63.660156 C 51.03125 64.332031 45.773438 65.632812 39.894531 65.609375 C 25.917969 65.558594 14.445312 54 12.996094 48.203125 C 12.996094 48.203125 12.78125 43.957031 14.601562 41.082031 C 16.421875 38.203125 20.910156 37.632812 20.910156 37.632812 C 22.125 42.933594 25.203125 47.933594 29.847656 50.75 C 34.492188 53.566406 40.75 53.890625 45.300781 50.921875 C 47.28125 49.628906 48.851562 47.816406 50.558594 46.179688 C 52.269531 44.550781 54.25 43.113281 56.550781 42.570312 C 56.957031 42.472656 57.753906 42.398438 58.371094 42.351562 C 58.421875 43.550781 58.472656 44.75 58.519531 45.949219 L 58.585938 47.171875 C 60.582031 46.796875 62.539062 46.222656 64.425781 45.464844 C 65.234375 45.136719 66.054688 44.773438 66.925781 44.769531 C 67.792969 44.761719 68.742188 45.21875 68.992188 46.054688 C 69.183594 46.695312 68.917969 47.40625 68.472656 47.902344 Z M 68.472656 47.902344 " fill-opacity="1" fill-rule="nonzero"/></g><path fill="#ffffff" d="M 137.375 37.128906 C 137.375 37.128906 136.882812 40.695312 133.625 41.730469 C 130.363281 42.761719 126.964844 41.324219 126.964844 41.324219 C 125.597656 38.804688 123.089844 36.996094 120.328125 36.246094 C 117.5625 35.496094 114.574219 35.769531 111.894531 36.777344 C 108.878906 37.910156 106.21875 39.972656 104.367188 42.605469 C 103.339844 44.058594 102.550781 45.6875 101.382812 47.027344 C 100.207031 48.367188 98.511719 49.363281 96.738281 49.210938 C 96.363281 49.175781 95.820312 49.078125 95.378906 48.992188 C 95.140625 48.621094 94.945312 48.179688 94.820312 47.644531 C 94.777344 47.464844 94.71875 47.097656 94.65625 46.59375 C 92.472656 48.058594 90.402344 49.6875 88.464844 51.46875 C 88.164062 51.746094 87.863281 52.027344 87.496094 52.203125 C 87.132812 52.378906 86.6875 52.441406 86.320312 52.257812 C 85.789062 51.984375 85.609375 51.273438 85.769531 50.695312 C 85.929688 50.121094 86.34375 49.65625 86.761719 49.226562 C 87.589844 48.363281 88.46875 47.554688 89.394531 46.796875 C 88.800781 45.617188 89.0625 44.601562 89.511719 43.894531 C 88.84375 43.058594 89.003906 41.839844 89.292969 41.265625 C 89.542969 40.769531 89.9375 40.359375 90.394531 40.03125 C 90.136719 38.117188 91.183594 37.214844 92.183594 36.695312 C 92.664062 36.445312 93.179688 36.273438 93.703125 36.136719 C 94.34375 35.960938 95.003906 35.835938 95.640625 35.65625 C 100.6875 34.242188 105.324219 30.457031 109.546875 28.496094 C 112.902344 26.941406 125.898438 21.203125 137.375 37.128906 Z M 137.375 37.128906 " fill-opacity="1" fill-rule="nonzero"/><path fill="#ffffff" d="M 68.28125 95.015625 C 67.839844 97.304688 65.859375 98.929688 63.996094 100.324219 C 62.128906 101.71875 60.207031 103.296875 59.558594 105.535156 C 57.320312 113.296875 48.769531 119.695312 37.207031 119.394531 C 25.648438 119.09375 17.105469 110.941406 17.105469 110.941406 C 17.105469 110.941406 14.683594 106.984375 15.464844 101.226562 C 16.039062 96.972656 18.308594 95.042969 18.308594 95.042969 C 20.519531 101.785156 27.285156 106.113281 36.203125 106.882812 C 50.132812 108.082031 53.53125 97.003906 52.265625 91.332031 C 51.957031 89.949219 51.957031 87.8125 54.03125 86.328125 L 56.078125 88.949219 C 57.347656 86.710938 58.390625 84.339844 59.179688 81.886719 C 59.414062 81.144531 59.644531 80.371094 60.160156 79.789062 C 60.675781 79.207031 61.574219 78.878906 62.25 79.265625 C 63.039062 79.71875 63.109375 80.824219 63.011719 81.726562 C 62.871094 83.023438 62.582031 84.304688 62.160156 85.535156 C 62.914062 86.503906 63.351562 87.558594 63.507812 88.445312 C 64.316406 88.230469 64.855469 88.601562 65.0625 88.824219 C 65.304688 89.078125 65.445312 89.410156 65.546875 89.742188 C 67.664062 90.792969 68.589844 93.402344 68.28125 95.015625 Z M 68.28125 95.015625 " fill-opacity="1" fill-rule="nonzero"/><path fill="#ffffff" d="M 110.480469 126.253906 C 110.480469 126.253906 100.945312 129.140625 95.386719 128.371094 C 89.828125 127.605469 86.277344 124.820312 86.277344 124.820312 C 107.097656 117.277344 106.707031 103.902344 105.886719 98.25 C 105.214844 93.585938 101.707031 89.503906 97.332031 87.769531 C 96.132812 87.292969 94.882812 86.949219 93.625 86.679688 C 93.355469 86.625 93.027344 86.550781 92.6875 86.480469 C 92.769531 86.402344 92.84375 86.320312 92.917969 86.230469 C 93.875 85.054688 93.957031 83.242188 93.113281 81.984375 C 93.113281 81.984375 92.847656 81.59375 92.917969 81.226562 C 91.773438 79.929688 90.726562 78.546875 89.777344 77.101562 C 89.492188 76.667969 89.210938 76.214844 89.121094 75.703125 C 89.03125 75.195312 89.171875 74.613281 89.589844 74.308594 C 89.964844 74.042969 90.484375 74.054688 90.910156 74.226562 C 91.339844 74.398438 91.695312 74.710938 92.03125 75.023438 C 92.664062 75.609375 93.28125 76.21875 93.863281 76.851562 C 94.867188 75.921875 95.972656 75.914062 96.648438 76.125 C 96.914062 76.207031 97.164062 76.324219 97.398438 76.472656 C 98.359375 75.691406 99.5 75.785156 100.082031 76.035156 C 100.367188 76.160156 100.628906 76.320312 100.867188 76.523438 C 102.183594 75.59375 103.765625 75.984375 104.632812 76.6875 C 105.585938 77.460938 106.136719 78.621094 106.550781 79.777344 C 106.964844 80.933594 107.28125 82.140625 107.894531 83.199219 C 109.183594 85.414062 113.089844 89.496094 114.808594 91.402344 C 121.621094 98.96875 124.671875 114.230469 110.480469 126.253906 Z M 110.480469 126.253906 " fill-opacity="1" fill-rule="nonzero"/><path fill="currentcolor" d="M 59.175781 45.949219 C 59.097656 44.039062 59.015625 42.125 58.9375 40.214844 C 58.777344 40.425781 58.617188 40.636719 58.457031 40.847656 C 61.511719 40.117188 64.644531 39.8125 67.785156 39.9375 C 67.566406 39.71875 67.347656 39.5 67.132812 39.28125 C 67.140625 40.429688 67.167969 41.679688 67.808594 42.675781 C 68.359375 43.539062 69.324219 44.199219 70.382812 44.085938 C 71.457031 43.96875 72.261719 43.144531 72.648438 42.171875 C 73.09375 41.050781 72.863281 39.792969 72.648438 38.644531 C 72.4375 38.921875 72.226562 39.199219 72.015625 39.476562 C 74.21875 39.285156 76.417969 39.089844 78.621094 38.898438 C 78.972656 38.867188 79.277344 38.621094 79.277344 38.242188 C 79.277344 37.910156 78.976562 37.554688 78.621094 37.589844 C 76.417969 37.78125 74.21875 37.972656 72.015625 38.164062 C 71.570312 38.203125 71.304688 38.550781 71.386719 38.996094 C 71.542969 39.835938 71.722656 40.742188 71.472656 41.578125 C 71.308594 42.117188 70.878906 42.710938 70.28125 42.789062 C 69.648438 42.871094 69.109375 42.34375 68.832031 41.832031 C 68.421875 41.070312 68.449219 40.121094 68.445312 39.28125 C 68.441406 38.917969 68.148438 38.640625 67.789062 38.625 C 64.539062 38.5 61.277344 38.828125 58.113281 39.585938 C 57.84375 39.652344 57.621094 39.9375 57.632812 40.21875 C 57.710938 42.128906 57.792969 44.039062 57.871094 45.949219 C 57.902344 46.789062 59.210938 46.792969 59.175781 45.949219 Z M 59.175781 45.949219 " fill-opacity="1" fill-rule="nonzero"/><path fill="currentcolor" d="M 78.152344 39.089844 C 78.1875 40.496094 78.21875 41.90625 78.25 43.3125 C 78.257812 43.738281 78.660156 44.058594 79.078125 43.945312 C 80.21875 43.636719 81.507812 43.585938 82.578125 44.164062 C 83.457031 44.640625 84.152344 45.574219 84.136719 46.605469 C 84.121094 47.625 83.351562 48.4375 82.488281 48.882812 C 81.363281 49.464844 79.980469 49.410156 78.765625 49.230469 C 78.464844 49.1875 78.195312 49.261719 78.027344 49.53125 C 76.773438 51.546875 77.894531 53.808594 77.59375 55.972656 C 77.445312 57.054688 76.753906 57.84375 75.765625 58.277344 C 74.527344 58.816406 73.113281 58.71875 71.796875 58.65625 C 71.988281 58.984375 72.175781 59.316406 72.363281 59.644531 C 73.144531 58.492188 73.5 57.007812 73.128906 55.644531 C 72.796875 54.421875 71.875 53.394531 70.6875 52.960938 C 69.542969 52.542969 68.191406 52.863281 67.308594 53.6875 C 66.183594 54.738281 66.394531 56.1875 66.347656 57.578125 C 66.332031 58.121094 66.230469 58.785156 65.746094 59.109375 C 65.210938 59.464844 64.433594 59.292969 63.847656 59.179688 C 63.503906 59.113281 63.140625 59.277344 63.042969 59.636719 C 62.957031 59.957031 63.152344 60.378906 63.5 60.445312 C 64.660156 60.664062 66.027344 60.804688 66.902344 59.832031 C 67.777344 58.859375 67.632812 57.53125 67.644531 56.324219 C 67.644531 55.78125 67.703125 55.214844 68.0625 54.785156 C 68.363281 54.425781 68.796875 54.203125 69.25 54.117188 C 70.226562 53.929688 71.136719 54.542969 71.605469 55.367188 C 72.265625 56.527344 71.941406 57.929688 71.230469 58.980469 C 70.9375 59.414062 71.335938 59.945312 71.796875 59.96875 C 73.898438 60.070312 76.339844 60.0625 77.878906 58.367188 C 79.261719 56.839844 78.917969 54.828125 78.753906 52.953125 C 78.671875 52.007812 78.632812 51.027344 79.15625 50.191406 C 78.90625 50.292969 78.664062 50.394531 78.414062 50.492188 C 80.769531 50.832031 83.558594 50.636719 84.929688 48.375 C 86.183594 46.300781 84.929688 43.730469 82.832031 42.835938 C 81.535156 42.285156 80.078125 42.3125 78.730469 42.675781 C 79.007812 42.886719 79.28125 43.097656 79.558594 43.308594 C 79.527344 41.902344 79.496094 40.492188 79.464844 39.085938 C 79.441406 38.246094 78.132812 38.242188 78.152344 39.089844 Z M 78.152344 39.089844 " fill-opacity="1" fill-rule="nonzero"/><path fill="currentcolor" d="M 77.507812 59.546875 C 79.285156 59.625 81.0625 59.703125 82.84375 59.777344 C 83.65625 59.8125 84.484375 59.855469 85.101562 59.214844 C 85.625 58.664062 85.773438 57.910156 85.820312 57.179688 C 85.863281 56.492188 85.875 55.871094 86.257812 55.273438 C 86.539062 54.832031 86.960938 54.496094 87.421875 54.253906 C 88.355469 53.773438 89.496094 53.851562 90.277344 54.585938 C 91.097656 55.355469 91.515625 56.683594 91.035156 57.746094 C 90.816406 58.222656 91.078125 58.683594 91.597656 58.734375 C 93.429688 58.914062 95.210938 59.484375 97.058594 59.160156 C 98.757812 58.863281 100.082031 57.726562 100.558594 56.058594 C 100.800781 55.214844 100.816406 54.332031 100.703125 53.464844 C 100.640625 53.003906 100.550781 52.542969 100.441406 52.089844 C 100.386719 51.867188 100.328125 51.644531 100.265625 51.425781 C 100.195312 51.164062 100.148438 50.808594 99.949219 50.613281 C 99.691406 50.351562 99.167969 50.339844 98.824219 50.273438 C 98.394531 50.1875 97.96875 50.089844 97.558594 49.9375 C 97.15625 49.792969 96.660156 49.511719 96.316406 49.179688 C 95.847656 48.71875 95.589844 48.121094 95.449219 47.46875 C 95.269531 46.644531 94.007812 46.992188 94.183594 47.816406 C 94.484375 49.203125 95.347656 50.363281 96.636719 50.96875 C 97.503906 51.371094 98.402344 51.460938 99.3125 51.707031 C 99.160156 51.554688 99.007812 51.402344 98.855469 51.25 C 99.386719 53.109375 100.167969 55.957031 98.21875 57.316406 C 96.308594 58.648438 93.679688 57.625 91.59375 57.425781 C 91.785156 57.753906 91.972656 58.082031 92.160156 58.410156 C 93.304688 55.894531 91.492188 52.558594 88.585938 52.640625 C 87.210938 52.679688 85.90625 53.433594 85.148438 54.574219 C 84.726562 55.214844 84.570312 55.9375 84.53125 56.699219 C 84.5 57.242188 84.554688 58.347656 83.820312 58.480469 C 83.371094 58.5625 82.855469 58.46875 82.40625 58.449219 C 81.875 58.425781 81.347656 58.402344 80.820312 58.382812 C 79.714844 58.335938 78.609375 58.285156 77.503906 58.238281 C 76.664062 58.203125 76.667969 59.511719 77.507812 59.546875 Z M 77.507812 59.546875 " fill-opacity="1" fill-rule="nonzero"/><path fill="currentcolor" d="M 80.320312 38.71875 C 81.140625 38.734375 81.964844 38.753906 82.785156 38.769531 C 83.535156 38.789062 84.300781 38.851562 85.054688 38.804688 C 85.773438 38.765625 86.449219 38.519531 86.867188 37.894531 C 87.203125 37.386719 87.253906 36.742188 87.261719 36.152344 C 87.269531 35.589844 87.246094 35.039062 87.464844 34.511719 C 87.667969 34.011719 88.023438 33.566406 88.449219 33.238281 C 89.308594 32.578125 90.464844 32.394531 91.433594 32.921875 C 92.519531 33.515625 93.179688 34.707031 93.042969 35.941406 C 93.007812 36.296875 93.371094 36.597656 93.699219 36.597656 C 94.082031 36.597656 94.316406 36.296875 94.355469 35.941406 C 94.648438 33.199219 91.929688 30.742188 89.242188 31.421875 C 87.984375 31.738281 86.855469 32.679688 86.328125 33.867188 C 86.042969 34.503906 85.964844 35.152344 85.957031 35.84375 C 85.957031 36.285156 86.039062 36.996094 85.660156 37.316406 C 85.410156 37.527344 85.019531 37.507812 84.714844 37.503906 C 84.238281 37.5 83.757812 37.484375 83.28125 37.476562 C 82.292969 37.453125 81.3125 37.429688 80.324219 37.410156 C 79.476562 37.386719 79.476562 38.699219 80.320312 38.71875 Z M 80.320312 38.71875 " fill-opacity="1" fill-rule="nonzero"/><path fill="currentcolor" d="M 20.277344 37.808594 C 21.625 43.601562 25.183594 49.207031 30.617188 51.921875 C 33.371094 53.296875 36.53125 53.914062 39.59375 53.578125 C 41.140625 53.40625 42.628906 53.011719 44.042969 52.363281 C 45.53125 51.679688 46.835938 50.679688 48.035156 49.578125 C 50.65625 47.160156 53.039062 43.96875 56.722656 43.203125 C 57.546875 43.03125 57.195312 41.765625 56.375 41.9375 C 53.167969 42.605469 50.789062 45.007812 48.558594 47.234375 C 47.414062 48.382812 46.242188 49.535156 44.871094 50.417969 C 43.660156 51.191406 42.324219 51.726562 40.921875 52.039062 C 38.082031 52.671875 35.070312 52.339844 32.371094 51.28125 C 29.707031 50.234375 27.417969 48.367188 25.636719 46.144531 C 23.617188 43.625 22.265625 40.59375 21.539062 37.460938 C 21.347656 36.640625 20.085938 36.984375 20.277344 37.808594 Z M 20.277344 37.808594 " fill-opacity="1" fill-rule="nonzero"/><path fill="currentcolor" d="M 55.300781 48.265625 C 57.171875 48.113281 59.03125 47.808594 60.847656 47.335938 C 61.769531 47.09375 62.683594 46.808594 63.582031 46.484375 C 64.4375 46.175781 65.261719 45.765625 66.140625 45.539062 C 66.777344 45.371094 67.515625 45.34375 68.054688 45.789062 C 68.574219 46.21875 68.433594 46.921875 68.046875 47.394531 C 67.542969 48.015625 66.71875 48.347656 66.011719 48.671875 C 65.199219 49.042969 64.371094 49.371094 63.527344 49.660156 C 61.597656 50.3125 59.597656 50.765625 57.570312 50.976562 C 57.21875 51.015625 56.917969 51.253906 56.917969 51.632812 C 56.917969 51.960938 57.21875 52.328125 57.570312 52.289062 C 59.605469 52.074219 61.613281 51.664062 63.5625 51.027344 C 64.539062 50.707031 65.496094 50.332031 66.433594 49.914062 C 67.285156 49.53125 68.195312 49.132812 68.859375 48.449219 C 69.503906 47.789062 69.90625 46.796875 69.628906 45.878906 C 69.375 45.035156 68.632812 44.457031 67.808594 44.226562 C 66.910156 43.976562 65.96875 44.175781 65.113281 44.492188 C 64.140625 44.851562 63.191406 45.253906 62.203125 45.574219 C 59.96875 46.292969 57.652344 46.761719 55.304688 46.953125 C 54.953125 46.980469 54.652344 47.234375 54.652344 47.609375 C 54.648438 47.945312 54.949219 48.296875 55.300781 48.265625 Z M 55.300781 48.265625 " fill-opacity="1" fill-rule="nonzero"/><path fill="currentcolor" d="M 63.367188 50.921875 C 63.492188 52.007812 62.917969 53.011719 62.054688 53.695312 C 61.035156 54.503906 59.714844 54.84375 58.484375 55.183594 C 57.675781 55.410156 58.019531 56.671875 58.835938 56.449219 C 60.296875 56.042969 61.785156 55.597656 62.980469 54.621094 C 64.054688 53.746094 64.839844 52.339844 64.679688 50.921875 C 64.636719 50.566406 64.40625 50.265625 64.023438 50.265625 C 63.699219 50.265625 63.324219 50.566406 63.367188 50.921875 Z M 63.367188 50.921875 " fill-opacity="1" fill-rule="nonzero"/><path fill="currentcolor" d="M 63.140625 54.089844 C 63.082031 55.214844 62.566406 56.316406 61.71875 57.085938 C 60.847656 57.882812 59.664062 58.246094 58.503906 58.175781 C 58.152344 58.15625 57.847656 58.492188 57.847656 58.832031 C 57.847656 59.203125 58.148438 59.464844 58.503906 59.488281 C 60.011719 59.578125 61.527344 59.03125 62.644531 58.011719 C 63.742188 57.011719 64.375 55.566406 64.449219 54.089844 C 64.46875 53.738281 64.136719 53.433594 63.796875 53.433594 C 63.425781 53.433594 63.160156 53.734375 63.140625 54.089844 Z M 63.140625 54.089844 " fill-opacity="1" fill-rule="nonzero"/><g clip-path="url(#ce32b1e2d9)"><path fill="currentcolor" d="M 62.875 57.691406 C 63.253906 59.785156 61.148438 61.421875 59.398438 61.996094 C 58.199219 62.390625 56.9375 62.550781 55.6875 62.738281 C 54.683594 62.890625 53.691406 63.09375 52.699219 63.3125 C 48.222656 64.285156 43.65625 65.105469 39.054688 64.9375 C 34.972656 64.789062 30.964844 63.621094 27.328125 61.777344 C 24.035156 60.105469 21 57.90625 18.40625 55.269531 C 17.332031 54.175781 16.351562 53.03125 15.496094 51.792969 C 15.132812 51.265625 14.792969 50.71875 14.492188 50.152344 C 14.351562 49.894531 14.21875 49.632812 14.097656 49.367188 C 14.070312 49.304688 14.042969 49.246094 14.015625 49.183594 C 13.976562 49.089844 14.054688 49.277344 14.015625 49.183594 C 14.003906 49.15625 13.996094 49.132812 13.984375 49.105469 C 13.933594 48.980469 13.886719 48.851562 13.839844 48.726562 C 13.757812 48.496094 13.683594 48.265625 13.625 48.027344 C 13.417969 47.210938 12.15625 47.554688 12.363281 48.378906 C 13.035156 51.023438 14.882812 53.386719 16.6875 55.363281 C 19.253906 58.171875 22.335938 60.550781 25.667969 62.386719 C 29.4375 64.457031 33.59375 65.832031 37.890625 66.179688 C 42.734375 66.578125 47.644531 65.742188 52.363281 64.722656 C 53.328125 64.515625 54.285156 64.285156 55.253906 64.125 C 56.542969 63.90625 57.855469 63.777344 59.121094 63.441406 C 61.308594 62.863281 63.582031 61.398438 64.109375 59.042969 C 64.238281 58.472656 64.234375 57.914062 64.132812 57.339844 C 64.074219 56.992188 63.648438 56.796875 63.328125 56.882812 C 62.96875 56.984375 62.8125 57.339844 62.875 57.691406 Z M 62.875 57.691406 " fill-opacity="1" fill-rule="nonzero"/></g><g clip-path="url(#68ab80094f)"><path fill="currentcolor" d="M 91.003906 39.558594 C 90.902344 38.546875 91.621094 37.738281 92.464844 37.285156 C 93.5625 36.695312 94.863281 36.570312 96.046875 36.21875 C 98.414062 35.519531 100.625 34.363281 102.75 33.128906 C 104.78125 31.945312 106.753906 30.65625 108.84375 29.570312 C 109.351562 29.308594 109.863281 29.0625 110.382812 28.832031 C 110.542969 28.761719 110.703125 28.691406 110.863281 28.621094 C 110.84375 28.628906 110.988281 28.566406 110.863281 28.621094 C 110.90625 28.601562 110.949219 28.585938 110.988281 28.566406 C 111.082031 28.53125 111.175781 28.492188 111.273438 28.453125 C 112.164062 28.097656 113.074219 27.792969 114.003906 27.546875 C 114.558594 27.398438 115.117188 27.273438 115.675781 27.167969 C 116.363281 27.042969 116.761719 26.992188 117.449219 26.933594 C 120.421875 26.683594 123.296875 27.113281 126.058594 28.269531 C 129.890625 29.871094 133.070312 32.722656 135.652344 35.929688 C 136.054688 36.429688 136.4375 36.941406 136.8125 37.460938 C 137.019531 37.746094 137.382812 37.886719 137.707031 37.695312 C 137.992188 37.53125 138.152344 37.085938 137.945312 36.800781 C 135.269531 33.101562 131.96875 29.722656 127.851562 27.664062 C 124.929688 26.195312 121.691406 25.453125 118.417969 25.566406 C 116.039062 25.652344 113.679688 26.15625 111.453125 26.988281 C 108.523438 28.085938 105.886719 29.738281 103.214844 31.339844 C 101.074219 32.621094 98.882812 33.878906 96.511719 34.699219 C 94.292969 35.464844 91.226562 35.523438 90.03125 37.921875 C 89.777344 38.429688 89.640625 38.988281 89.699219 39.5625 C 89.734375 39.914062 89.976562 40.214844 90.355469 40.214844 C 90.675781 40.214844 91.039062 39.910156 91.003906 39.558594 Z M 91.003906 39.558594 " fill-opacity="1" fill-rule="nonzero"/></g><path fill="currentcolor" d="M 92.460938 38.324219 C 91.324219 38.746094 90.136719 39.203125 89.300781 40.125 C 88.4375 41.082031 88.089844 42.414062 88.664062 43.609375 C 88.820312 43.929688 89.273438 44.015625 89.5625 43.84375 C 89.886719 43.65625 89.949219 43.269531 89.796875 42.949219 C 89.734375 42.824219 89.6875 42.605469 89.679688 42.453125 C 89.671875 42.203125 89.679688 42.125 89.753906 41.878906 C 89.867188 41.492188 90.074219 41.195312 90.371094 40.902344 C 90.679688 40.597656 90.992188 40.394531 91.417969 40.171875 C 91.878906 39.933594 92.320312 39.769531 92.8125 39.585938 C 93.144531 39.464844 93.367188 39.144531 93.269531 38.78125 C 93.179688 38.460938 92.796875 38.199219 92.460938 38.324219 Z M 92.460938 38.324219 " fill-opacity="1" fill-rule="nonzero"/><path fill="currentcolor" d="M 92.164062 41.164062 C 91.140625 41.65625 90.0625 42.1875 89.3125 43.074219 C 88.546875 43.972656 88.101562 45.207031 88.46875 46.375 C 88.570312 46.710938 88.921875 46.925781 89.273438 46.832031 C 89.605469 46.742188 89.835938 46.363281 89.730469 46.023438 C 89.695312 45.914062 89.664062 45.800781 89.648438 45.6875 C 89.664062 45.785156 89.648438 45.640625 89.648438 45.621094 C 89.644531 45.5625 89.644531 45.507812 89.644531 45.449219 C 89.644531 45.390625 89.652344 45.335938 89.65625 45.277344 C 89.664062 45.230469 89.660156 45.230469 89.652344 45.28125 C 89.65625 45.257812 89.664062 45.234375 89.664062 45.214844 C 89.691406 45.101562 89.714844 44.988281 89.75 44.875 C 89.863281 44.519531 90.109375 44.125 90.375 43.84375 C 91.035156 43.148438 91.9375 42.722656 92.824219 42.292969 C 93.144531 42.136719 93.230469 41.683594 93.0625 41.394531 C 92.871094 41.074219 92.484375 41.007812 92.164062 41.164062 Z M 92.164062 41.164062 " fill-opacity="1" fill-rule="nonzero"/><path fill="currentcolor" d="M 92.921875 43.542969 C 91.441406 44.417969 90.035156 45.414062 88.714844 46.511719 C 88.066406 47.050781 87.441406 47.617188 86.84375 48.207031 C 86.261719 48.78125 85.613281 49.378906 85.28125 50.140625 C 84.984375 50.8125 84.964844 51.621094 85.382812 52.253906 C 85.855469 52.976562 86.769531 53.183594 87.558594 52.882812 C 88.371094 52.574219 88.980469 51.871094 89.617188 51.304688 C 90.269531 50.730469 90.929688 50.171875 91.605469 49.628906 C 93.144531 48.402344 94.753906 47.269531 96.417969 46.222656 C 97.132812 45.777344 96.476562 44.640625 95.757812 45.089844 C 93.132812 46.738281 90.644531 48.609375 88.34375 50.691406 C 87.957031 51.039062 87.324219 51.835938 86.722656 51.707031 C 86.289062 51.613281 86.324219 51.007812 86.457031 50.695312 C 86.726562 50.0625 87.335938 49.5625 87.816406 49.09375 C 88.355469 48.5625 88.914062 48.058594 89.492188 47.566406 C 90.769531 46.488281 92.140625 45.527344 93.582031 44.675781 C 94.308594 44.246094 93.652344 43.109375 92.921875 43.542969 Z M 92.921875 43.542969 " fill-opacity="1" fill-rule="nonzero"/><path fill="currentcolor" d="M 96.738281 49.867188 C 99.320312 50.140625 101.425781 48.226562 102.796875 46.253906 C 103.527344 45.207031 104.132812 44.085938 104.859375 43.039062 C 105.523438 42.078125 106.308594 41.199219 107.175781 40.414062 C 110.78125 37.148438 116.121094 35.484375 120.835938 37.085938 C 123.164062 37.878906 125.207031 39.492188 126.402344 41.65625 C 126.808594 42.394531 127.941406 41.734375 127.53125 40.992188 C 126.414062 38.964844 124.609375 37.347656 122.519531 36.367188 C 120.105469 35.230469 117.425781 34.957031 114.804688 35.347656 C 112.300781 35.71875 109.882812 36.742188 107.832031 38.21875 C 105.753906 39.710938 104.167969 41.601562 102.832031 43.769531 C 101.488281 45.941406 99.710938 48.871094 96.738281 48.554688 C 96.382812 48.515625 96.082031 48.882812 96.082031 49.210938 C 96.082031 49.59375 96.382812 49.828125 96.738281 49.867188 Z M 96.738281 49.867188 " fill-opacity="1" fill-rule="nonzero"/><path fill="currentcolor" d="M 51.027344 71.257812 C 50.171875 71.949219 49.3125 72.636719 48.457031 73.328125 C 47.714844 73.929688 46.835938 74.488281 46.234375 75.246094 C 44.878906 76.953125 46.222656 78.933594 47.503906 80.214844 C 48.148438 80.859375 48.976562 81.367188 49.921875 81.191406 C 50.753906 81.039062 51.28125 80.347656 51.855469 79.792969 C 52.925781 78.761719 54.65625 79.226562 55.210938 80.582031 C 55.910156 82.304688 54.695312 84.074219 53.105469 84.730469 C 52.621094 84.933594 52.496094 85.414062 52.816406 85.828125 C 53.5625 86.789062 54.308594 87.753906 55.054688 88.71875 C 55.269531 89 55.753906 88.945312 55.980469 88.71875 C 56.257812 88.441406 56.199219 88.070312 55.980469 87.792969 C 55.234375 86.828125 54.488281 85.863281 53.742188 84.898438 C 53.648438 85.265625 53.550781 85.632812 53.453125 85.996094 C 55.148438 85.300781 56.519531 83.882812 56.699219 81.996094 C 56.863281 80.261719 55.863281 78.511719 54.144531 78.035156 C 53.335938 77.8125 52.445312 77.878906 51.699219 78.277344 C 51 78.648438 50.613281 79.378906 49.957031 79.785156 C 49.242188 80.226562 48.550781 79.441406 48.117188 78.949219 C 47.613281 78.371094 46.847656 77.523438 46.960938 76.683594 C 47.019531 76.230469 47.375 75.902344 47.703125 75.617188 C 48.136719 75.238281 48.601562 74.886719 49.050781 74.523438 C 50.019531 73.742188 50.988281 72.960938 51.957031 72.183594 C 52.230469 71.960938 52.1875 71.488281 51.957031 71.257812 C 51.679688 70.984375 51.304688 71.035156 51.027344 71.257812 Z M 51.027344 71.257812 " fill-opacity="1" fill-rule="nonzero"/><path fill="currentcolor" d="M 51.011719 71.792969 C 52.183594 72.808594 53.449219 73.882812 55.003906 74.222656 C 56.441406 74.535156 58.089844 74.242188 59.007812 73 C 59.78125 71.960938 59.851562 70.402344 58.957031 69.417969 C 58.578125 69.003906 57.9375 68.796875 57.621094 68.339844 C 57.363281 67.964844 58.0625 67.566406 58.355469 67.378906 C 60.070312 66.253906 61.785156 65.140625 63.503906 64.019531 C 64.207031 63.5625 63.550781 62.425781 62.84375 62.886719 C 61.40625 63.824219 59.96875 64.757812 58.53125 65.695312 C 57.492188 66.371094 55.585938 67.390625 56.453125 68.929688 C 56.75 69.457031 57.289062 69.738281 57.753906 70.089844 C 58.128906 70.375 58.3125 70.730469 58.304688 71.203125 C 58.28125 72.402344 57.171875 73.039062 56.078125 73.035156 C 54.441406 73.027344 53.109375 71.878906 51.941406 70.863281 C 51.304688 70.316406 50.371094 71.238281 51.011719 71.792969 Z M 51.011719 71.792969 " fill-opacity="1" fill-rule="nonzero"/><path fill="currentcolor" d="M 63.664062 64.6875 C 64.253906 65.75 64.839844 66.816406 65.429688 67.882812 C 65.601562 68.191406 66.027344 68.292969 66.324219 68.117188 C 67.632812 67.351562 69.019531 66.515625 70.578125 66.460938 C 71.789062 66.421875 73.167969 66.976562 73.515625 68.253906 C 73.882812 69.601562 72.722656 70.753906 71.683594 71.386719 C 71.113281 71.734375 70.488281 71.988281 69.996094 72.441406 C 69.460938 72.933594 69.234375 73.640625 69.414062 74.347656 C 69.628906 75.207031 70.324219 75.957031 70.824219 76.664062 C 71.398438 77.476562 71.972656 78.285156 72.546875 79.097656 C 72.75 79.386719 73.117188 79.523438 73.441406 79.335938 C 73.726562 79.167969 73.882812 78.726562 73.679688 78.4375 C 73.144531 77.683594 72.613281 76.929688 72.082031 76.179688 C 71.828125 75.824219 71.578125 75.464844 71.324219 75.109375 C 71.09375 74.789062 70.800781 74.445312 70.691406 74.054688 C 70.519531 73.453125 71.214844 73.140625 71.648438 72.910156 C 72.3125 72.550781 72.960938 72.164062 73.519531 71.640625 C 74.667969 70.5625 75.261719 68.902344 74.59375 67.40625 C 73.957031 65.992188 72.453125 65.226562 70.957031 65.15625 C 69.027344 65.066406 67.28125 66.042969 65.667969 66.988281 C 65.96875 67.070312 66.265625 67.148438 66.5625 67.226562 C 65.976562 66.160156 65.386719 65.097656 64.800781 64.03125 C 64.386719 63.285156 63.257812 63.945312 63.664062 64.6875 Z M 63.664062 64.6875 " fill-opacity="1" fill-rule="nonzero"/><path fill="currentcolor" d="M 72.734375 79.105469 C 71.601562 79.757812 70.464844 80.414062 69.335938 81.066406 C 68.839844 81.351562 68.214844 81.601562 67.851562 82.058594 C 67.496094 82.492188 67.484375 83.082031 67.78125 83.550781 C 68.039062 83.957031 68.433594 84.203125 68.789062 84.507812 C 69.125 84.796875 69.390625 85.15625 69.5625 85.5625 C 69.90625 86.355469 69.90625 87.304688 69.476562 88.0625 C 68.996094 88.917969 68.089844 89.523438 67.101562 89.582031 C 66.265625 89.628906 66.257812 90.941406 67.101562 90.890625 C 69.226562 90.761719 71.035156 89.054688 71.113281 86.890625 C 71.152344 85.859375 70.785156 84.835938 70.144531 84.03125 C 69.835938 83.644531 69.429688 83.390625 69.070312 83.054688 C 69.019531 83.003906 68.96875 82.929688 68.914062 82.886719 C 68.773438 82.777344 68.964844 82.8125 68.867188 82.875 C 69.046875 82.753906 69.238281 82.632812 69.429688 82.519531 C 70.75 81.757812 72.074219 80.996094 73.394531 80.230469 C 74.125 79.816406 73.464844 78.679688 72.734375 79.105469 Z M 72.734375 79.105469 " fill-opacity="1" fill-rule="nonzero"/><path fill="currentcolor" d="M 55.582031 91.03125 C 56.601562 89.433594 57.507812 87.769531 58.277344 86.039062 C 58.667969 85.164062 59.03125 84.273438 59.359375 83.371094 C 59.652344 82.554688 59.851562 81.679688 60.222656 80.894531 C 60.484375 80.347656 60.984375 79.667969 61.683594 79.757812 C 62.308594 79.835938 62.390625 80.628906 62.386719 81.128906 C 62.386719 82.757812 61.882812 84.472656 61.300781 85.980469 C 60.605469 87.785156 59.585938 89.476562 58.324219 90.9375 C 57.773438 91.574219 58.695312 92.503906 59.25 91.863281 C 60.550781 90.359375 61.59375 88.671875 62.363281 86.835938 C 63.089844 85.097656 63.660156 83.125 63.699219 81.226562 C 63.714844 80.398438 63.539062 79.464844 62.867188 78.90625 C 62.128906 78.289062 61.09375 78.332031 60.296875 78.824219 C 59.457031 79.34375 59.03125 80.246094 58.726562 81.148438 C 58.394531 82.128906 58.082031 83.109375 57.699219 84.070312 C 56.828125 86.269531 55.726562 88.378906 54.453125 90.367188 C 53.996094 91.082031 55.128906 91.742188 55.582031 91.03125 Z M 55.582031 91.03125 " fill-opacity="1" fill-rule="nonzero"/><path fill="currentcolor" d="M 62.054688 86.429688 C 63.273438 88.125 63.195312 90.429688 61.757812 91.976562 C 61.183594 92.59375 62.105469 93.523438 62.683594 92.902344 C 64.492188 90.953125 64.746094 87.945312 63.183594 85.769531 C 62.976562 85.484375 62.613281 85.34375 62.285156 85.53125 C 62.003906 85.699219 61.847656 86.140625 62.054688 86.429688 Z M 62.054688 86.429688 " fill-opacity="1" fill-rule="nonzero"/><path fill="currentcolor" d="M 64.222656 89.089844 C 64.515625 89.039062 64.761719 89.484375 64.851562 89.722656 C 65.027344 90.1875 65.105469 90.691406 65.113281 91.183594 C 65.136719 92.175781 64.859375 93.132812 64.324219 93.96875 C 63.871094 94.683594 65.003906 95.34375 65.457031 94.632812 C 66.1875 93.480469 66.539062 92.066406 66.394531 90.707031 C 66.320312 90.03125 66.183594 89.296875 65.804688 88.714844 C 65.371094 88.046875 64.667969 87.695312 63.878906 87.824219 C 63.527344 87.882812 63.332031 88.3125 63.421875 88.632812 C 63.519531 89 63.871094 89.148438 64.222656 89.089844 Z M 64.222656 89.089844 " fill-opacity="1" fill-rule="nonzero"/><path fill="currentcolor" d="M 66.09375 90.8125 C 67.0625 91.554688 67.660156 92.789062 67.703125 94 C 67.75 95.269531 67.171875 96.433594 66.355469 97.378906 C 64.550781 99.476562 61.941406 100.683594 60.230469 102.890625 C 59.792969 103.457031 59.429688 104.058594 59.15625 104.722656 C 58.941406 105.246094 58.808594 105.800781 58.617188 106.328125 C 58.277344 107.269531 57.832031 108.171875 57.320312 109.027344 C 56.214844 110.875 54.746094 112.484375 53.070312 113.828125 C 49.207031 116.933594 44.25 118.496094 39.339844 118.722656 C 34.152344 118.960938 29.082031 117.640625 24.5 115.238281 C 22.847656 114.367188 21.257812 113.375 19.757812 112.269531 C 19.625 112.167969 19.488281 112.070312 19.355469 111.96875 C 19.289062 111.917969 19.226562 111.867188 19.15625 111.816406 C 19.273438 111.902344 19.078125 111.753906 19.042969 111.726562 C 18.828125 111.558594 18.617188 111.390625 18.40625 111.214844 C 18.152344 111.003906 17.90625 110.789062 17.664062 110.566406 C 17.628906 110.539062 17.597656 110.507812 17.566406 110.476562 C 16.957031 109.894531 16.027344 110.820312 16.640625 111.402344 C 18.429688 113.109375 20.574219 114.527344 22.714844 115.746094 C 27.292969 118.359375 32.453125 120.011719 37.75 120.058594 C 43.058594 120.101562 48.476562 118.714844 52.84375 115.621094 C 54.753906 114.269531 56.441406 112.625 57.785156 110.707031 C 58.40625 109.820312 58.945312 108.878906 59.386719 107.890625 C 59.609375 107.386719 59.816406 106.875 59.988281 106.351562 C 60.191406 105.761719 60.34375 105.171875 60.644531 104.617188 C 62.035156 102.082031 64.816406 100.820312 66.789062 98.832031 C 67.757812 97.851562 68.59375 96.664062 68.890625 95.296875 C 69.1875 93.90625 68.921875 92.425781 68.179688 91.21875 C 67.804688 90.609375 67.324219 90.109375 66.753906 89.675781 C 66.472656 89.460938 66.023438 89.632812 65.859375 89.914062 C 65.664062 90.25 65.8125 90.597656 66.09375 90.8125 Z M 66.09375 90.8125 " fill-opacity="1" fill-rule="nonzero"/><path fill="currentcolor" d="M 53.070312 86.511719 C 52.21875 87.269531 51.71875 88.347656 51.558594 89.46875 C 51.433594 90.386719 51.617188 91.226562 51.753906 92.128906 C 51.757812 92.164062 51.789062 92.382812 51.765625 92.207031 C 51.773438 92.261719 51.777344 92.324219 51.785156 92.382812 C 51.796875 92.519531 51.8125 92.660156 51.820312 92.796875 C 51.84375 93.074219 51.855469 93.351562 51.855469 93.628906 C 51.855469 94.222656 51.820312 94.808594 51.742188 95.394531 C 51.761719 95.253906 51.730469 95.480469 51.726562 95.515625 C 51.714844 95.585938 51.707031 95.652344 51.695312 95.722656 C 51.667969 95.878906 51.640625 96.039062 51.605469 96.195312 C 51.546875 96.507812 51.472656 96.816406 51.386719 97.121094 C 51.304688 97.433594 51.207031 97.742188 51.101562 98.046875 C 51.050781 98.195312 50.996094 98.347656 50.941406 98.496094 C 50.863281 98.6875 50.839844 98.757812 50.785156 98.871094 C 50.234375 100.136719 49.503906 101.289062 48.625 102.25 C 46.4375 104.652344 43.355469 105.933594 40.097656 106.234375 C 37.882812 106.441406 35.632812 106.265625 33.445312 105.859375 C 31.335938 105.46875 29.253906 104.847656 27.316406 103.910156 C 23.894531 102.253906 20.972656 99.632812 19.410156 96.121094 C 19.230469 95.714844 19.074219 95.296875 18.933594 94.875 C 18.667969 94.074219 17.40625 94.417969 17.671875 95.222656 C 18.941406 99.054688 21.65625 102.15625 25.097656 104.207031 C 28.976562 106.523438 33.675781 107.621094 38.171875 107.632812 C 41.867188 107.644531 45.582031 106.683594 48.441406 104.253906 C 50.628906 102.398438 52.117188 99.777344 52.769531 96.996094 C 53.0625 95.757812 53.203125 94.472656 53.152344 93.203125 C 53.128906 92.621094 53.066406 92.042969 52.957031 91.472656 C 52.78125 90.519531 52.726562 89.609375 53.101562 88.691406 C 53.300781 88.210938 53.601562 87.792969 53.992188 87.441406 C 54.628906 86.871094 53.699219 85.949219 53.070312 86.511719 Z M 53.070312 86.511719 " fill-opacity="1" fill-rule="nonzero"/><path fill="currentcolor" d="M 76.675781 59.921875 C 76.710938 61.855469 76.75 63.785156 76.785156 65.71875 C 76.796875 66.460938 76.824219 67.265625 77.277344 67.890625 C 77.753906 68.546875 78.519531 68.769531 79.296875 68.746094 C 79.972656 68.726562 80.675781 68.523438 81.34375 68.703125 C 81.925781 68.855469 82.441406 69.253906 82.773438 69.75 C 83.539062 70.890625 83.304688 72.359375 82.449219 73.386719 C 81.355469 74.699219 79.535156 75.074219 77.914062 74.753906 C 77.503906 74.675781 77.078125 74.9375 77.082031 75.386719 C 77.113281 77.425781 77.148438 79.464844 77.183594 81.503906 C 77.195312 82.347656 78.507812 82.347656 78.492188 81.503906 C 78.460938 79.464844 78.425781 77.425781 78.394531 75.386719 C 78.117188 75.597656 77.839844 75.808594 77.5625 76.019531 C 79.257812 76.351562 81.113281 76.140625 82.53125 75.09375 C 83.824219 74.136719 84.707031 72.527344 84.539062 70.890625 C 84.375 69.335938 83.296875 67.933594 81.789062 67.46875 C 81.015625 67.230469 80.246094 67.382812 79.460938 67.433594 C 79.167969 67.449219 78.828125 67.476562 78.558594 67.328125 C 78.273438 67.167969 78.183594 66.847656 78.136719 66.542969 C 78.0625 66.085938 78.089844 65.605469 78.085938 65.144531 C 78.074219 64.566406 78.0625 63.988281 78.050781 63.40625 C 78.03125 62.246094 78.007812 61.089844 77.988281 59.925781 C 77.96875 59.078125 76.660156 59.074219 76.675781 59.921875 Z M 76.675781 59.921875 " fill-opacity="1" fill-rule="nonzero"/><path fill="currentcolor" d="M 78.859375 82.648438 C 80.84375 82.480469 82.835938 82.3125 84.824219 82.144531 C 85.132812 82.117188 85.550781 82.035156 85.84375 82.171875 C 86.105469 82.292969 86.058594 82.628906 86.039062 82.871094 C 85.980469 83.652344 85.878906 84.351562 86.109375 85.125 C 86.550781 86.585938 87.78125 87.832031 89.3125 88.101562 C 90.828125 88.371094 92.472656 87.835938 93.441406 86.609375 C 94.546875 85.210938 94.648438 83.148438 93.675781 81.648438 C 93.21875 80.945312 92.082031 81.601562 92.542969 82.3125 C 93.226562 83.363281 93.222656 84.867188 92.378906 85.84375 C 91.582031 86.769531 90.167969 87.140625 89.027344 86.664062 C 87.871094 86.175781 87.15625 84.910156 87.25 83.675781 C 87.308594 82.957031 87.503906 82.203125 87.0625 81.554688 C 86.613281 80.886719 85.808594 80.761719 85.066406 80.8125 C 82.992188 80.953125 80.921875 81.164062 78.851562 81.339844 C 78.5 81.367188 78.199219 81.617188 78.199219 81.992188 C 78.203125 82.324219 78.503906 82.679688 78.859375 82.648438 Z M 78.859375 82.648438 " fill-opacity="1" fill-rule="nonzero"/><path fill="currentcolor" d="M 98.65625 58.105469 C 98.421875 60.648438 98.183594 63.191406 97.949219 65.734375 C 98.222656 65.523438 98.5 65.3125 98.777344 65.101562 C 96.800781 64.386719 94.332031 64.914062 93.222656 66.816406 C 92.722656 67.683594 92.53125 68.757812 92.804688 69.734375 C 93.09375 70.746094 93.875 71.554688 94.796875 72.03125 C 96.007812 72.660156 97.378906 72.75 98.71875 72.816406 C 98.5 72.601562 98.28125 72.382812 98.0625 72.164062 C 98.164062 73.167969 98.261719 74.171875 98.359375 75.179688 C 98.394531 75.53125 98.636719 75.835938 99.015625 75.835938 C 99.339844 75.835938 99.703125 75.535156 99.671875 75.179688 C 99.570312 74.175781 99.472656 73.171875 99.375 72.164062 C 99.339844 71.796875 99.101562 71.527344 98.71875 71.507812 C 97.546875 71.449219 96.304688 71.402344 95.265625 70.792969 C 94.445312 70.3125 93.910156 69.527344 94 68.554688 C 94.085938 67.628906 94.671875 66.84375 95.488281 66.429688 C 96.398438 65.964844 97.492188 66.027344 98.429688 66.367188 C 98.863281 66.523438 99.222656 66.121094 99.257812 65.734375 C 99.496094 63.191406 99.734375 60.648438 99.96875 58.105469 C 100 57.753906 99.644531 57.449219 99.316406 57.449219 C 98.929688 57.449219 98.6875 57.75 98.65625 58.105469 Z M 98.65625 58.105469 " fill-opacity="1" fill-rule="nonzero"/><path fill="currentcolor" d="M 94.855469 82.355469 C 93.917969 81.402344 93.03125 80.398438 92.199219 79.355469 C 91.40625 78.351562 90.566406 77.289062 89.96875 76.15625 C 89.789062 75.8125 89.597656 75.25 89.898438 74.910156 C 90.222656 74.546875 90.824219 74.878906 91.121094 75.101562 C 91.636719 75.484375 92.09375 75.980469 92.550781 76.433594 C 93.007812 76.894531 93.457031 77.363281 93.890625 77.847656 C 94.878906 78.953125 95.796875 80.121094 96.636719 81.347656 C 97.109375 82.035156 98.246094 81.382812 97.765625 80.683594 C 96.886719 79.40625 95.933594 78.179688 94.902344 77.019531 C 94.398438 76.453125 93.875 75.902344 93.339844 75.371094 C 92.789062 74.832031 92.234375 74.230469 91.574219 73.832031 C 90.9375 73.449219 90.128906 73.308594 89.441406 73.640625 C 88.796875 73.957031 88.46875 74.648438 88.441406 75.34375 C 88.414062 76.070312 88.761719 76.742188 89.144531 77.335938 C 89.570312 77.996094 90.019531 78.636719 90.488281 79.265625 C 91.542969 80.683594 92.6875 82.023438 93.925781 83.285156 C 94.519531 83.882812 95.445312 82.957031 94.855469 82.355469 Z M 94.855469 82.355469 " fill-opacity="1" fill-rule="nonzero"/><path fill="currentcolor" d="M 94.773438 77.050781 C 95.109375 76.742188 95.550781 76.636719 96.011719 76.664062 C 96.449219 76.6875 96.933594 76.90625 97.308594 77.199219 C 98.25 77.929688 98.734375 79.097656 99.207031 80.15625 C 99.351562 80.480469 99.820312 80.554688 100.105469 80.390625 C 100.433594 80.195312 100.480469 79.820312 100.339844 79.496094 C 99.738281 78.144531 99.066406 76.78125 97.789062 75.941406 C 96.585938 75.148438 94.941406 75.117188 93.847656 76.121094 C 93.589844 76.359375 93.605469 76.804688 93.847656 77.046875 C 94.105469 77.308594 94.511719 77.292969 94.773438 77.050781 Z M 94.773438 77.050781 " fill-opacity="1" fill-rule="nonzero"/><path fill="currentcolor" d="M 98.246094 76.71875 C 98.972656 76.265625 99.890625 76.515625 100.527344 77.089844 C 101.289062 77.777344 101.707031 78.753906 102.101562 79.722656 C 102.234375 80.046875 102.535156 80.28125 102.90625 80.179688 C 103.214844 80.09375 103.496094 79.699219 103.363281 79.371094 C 102.863281 78.152344 102.335938 76.867188 101.28125 76.015625 C 100.246094 75.179688 98.777344 74.847656 97.585938 75.585938 C 97.285156 75.773438 97.171875 76.171875 97.351562 76.484375 C 97.527344 76.78125 97.949219 76.90625 98.246094 76.71875 Z M 98.246094 76.71875 " fill-opacity="1" fill-rule="nonzero"/><path fill="currentcolor" d="M 101.546875 76.894531 C 102.4375 76.320312 103.601562 76.632812 104.347656 77.308594 C 105.238281 78.117188 105.695312 79.273438 106.070312 80.386719 C 106.472656 81.5625 106.839844 82.765625 107.511719 83.824219 C 108.007812 84.601562 108.582031 85.328125 109.164062 86.042969 C 110.464844 87.628906 111.851562 89.140625 113.238281 90.648438 C 114.285156 91.792969 115.257812 92.863281 116.097656 94.128906 C 117.90625 96.839844 119.082031 99.886719 119.605469 103.109375 C 120.171875 106.617188 119.839844 110.292969 118.695312 113.679688 C 117.277344 117.859375 114.636719 121.511719 111.441406 124.519531 C 110.976562 124.957031 110.5 125.378906 110.019531 125.789062 C 109.746094 126.019531 109.78125 126.480469 110.019531 126.714844 C 110.285156 126.984375 110.671875 126.945312 110.941406 126.714844 C 114.582031 123.621094 117.632812 119.828125 119.449219 115.386719 C 120.90625 111.824219 121.472656 107.894531 121.042969 104.058594 C 120.660156 100.605469 119.539062 97.238281 117.734375 94.261719 C 116.902344 92.890625 115.917969 91.640625 114.835938 90.460938 C 113.453125 88.949219 112.058594 87.453125 110.734375 85.890625 C 110.105469 85.152344 109.488281 84.402344 108.933594 83.605469 C 108.261719 82.636719 107.851562 81.589844 107.480469 80.476562 C 107.0625 79.230469 106.621094 77.980469 105.792969 76.941406 C 105.019531 75.96875 103.878906 75.304688 102.625 75.28125 C 102.011719 75.265625 101.398438 75.429688 100.882812 75.761719 C 100.179688 76.214844 100.835938 77.347656 101.546875 76.894531 Z M 101.546875 76.894531 " fill-opacity="1" fill-rule="nonzero"/><path fill="currentcolor" d="M 93.449219 87.3125 C 94.832031 87.648438 96.238281 87.980469 97.542969 88.566406 C 98.566406 89.023438 99.546875 89.605469 100.425781 90.304688 C 102.1875 91.714844 103.65625 93.546875 104.503906 95.652344 C 104.886719 96.605469 105.136719 97.59375 105.285156 98.609375 C 105.296875 98.710938 105.296875 98.695312 105.28125 98.59375 C 105.285156 98.640625 105.292969 98.6875 105.296875 98.734375 C 105.308594 98.835938 105.324219 98.941406 105.335938 99.042969 C 105.359375 99.246094 105.382812 99.449219 105.398438 99.652344 C 105.488281 100.601562 105.523438 101.550781 105.503906 102.5 C 105.488281 103.039062 105.457031 103.582031 105.40625 104.125 C 105.394531 104.253906 105.378906 104.382812 105.363281 104.515625 C 105.355469 104.585938 105.347656 104.65625 105.339844 104.722656 C 105.335938 104.757812 105.320312 104.851562 105.339844 104.710938 C 105.335938 104.753906 105.328125 104.796875 105.324219 104.84375 C 105.285156 105.132812 105.238281 105.417969 105.183594 105.707031 C 104.953125 106.949219 104.605469 108.171875 104.144531 109.34375 C 104.015625 109.671875 103.949219 109.820312 103.789062 110.175781 C 103.640625 110.496094 103.488281 110.804688 103.324219 111.113281 C 102.980469 111.773438 102.59375 112.414062 102.179688 113.03125 C 101.277344 114.367188 100.214844 115.589844 99.011719 116.726562 C 95.867188 119.699219 91.992188 121.851562 88 123.464844 C 87.371094 123.71875 86.738281 123.960938 86.105469 124.191406 C 85.773438 124.308594 85.546875 124.636719 85.648438 124.996094 C 85.734375 125.316406 86.117188 125.578125 86.453125 125.453125 C 90.929688 123.824219 95.277344 121.671875 98.921875 118.566406 C 101.449219 116.410156 103.597656 113.761719 104.96875 110.722656 C 106.042969 108.34375 106.648438 105.792969 106.789062 103.1875 C 106.910156 100.996094 106.789062 98.628906 106.183594 96.511719 C 105.523438 94.210938 104.21875 92.101562 102.519531 90.417969 C 100.695312 88.609375 98.460938 87.351562 96.003906 86.628906 C 95.273438 86.410156 94.535156 86.230469 93.796875 86.050781 C 92.980469 85.851562 92.632812 87.113281 93.449219 87.3125 Z M 93.449219 87.3125 " fill-opacity="1" fill-rule="nonzero"/></svg>