<svg xmlns="http://www.w3.org/2000/svg" xmlns:xlink="http://www.w3.org/1999/xlink" width="44" zoomAndPan="magnify" viewBox="0 0 33 32.999998" height="44" preserveAspectRatio="xMidYMid meet" version="1.0"><defs><clipPath id="77853b0238"><path d="M 6.074219 6.074219 L 27 6.074219 L 27 27 L 6.074219 27 Z M 6.074219 6.074219 " clip-rule="nonzero"/></clipPath><clipPath id="dbe2b1860c"><path d="M 16.5 0 C 7.386719 0 0 7.386719 0 16.5 C 0 25.613281 7.386719 33 16.5 33 C 25.613281 33 33 25.613281 33 16.5 C 33 7.386719 25.613281 0 16.5 0 Z M 16.5 0 " clip-rule="nonzero"/></clipPath></defs><g clip-path="url(#77853b0238)"><path fill="currentcolor" d="M 12.285156 11.234375 L 10.179688 9.125 C 9.886719 8.835938 9.417969 8.835938 9.128906 9.125 C 8.839844 9.417969 8.839844 9.886719 9.128906 10.175781 L 11.234375 12.28125 C 11.378906 12.433594 11.570312 12.507812 11.765625 12.507812 C 11.949219 12.507812 12.144531 12.433594 12.285156 12.28125 C 12.574219 11.992188 12.574219 11.523438 12.285156 11.234375 Z M 9.800781 15.753906 L 6.820312 15.753906 C 6.410156 15.753906 6.074219 16.089844 6.074219 16.5 C 6.074219 16.90625 6.410156 17.242188 6.820312 17.242188 L 9.800781 17.242188 C 10.207031 17.242188 10.542969 16.90625 10.542969 16.5 C 10.542969 16.089844 10.207031 15.753906 9.800781 15.753906 Z M 12.285156 20.710938 C 11.996094 20.421875 11.527344 20.421875 11.234375 20.710938 L 9.128906 22.820312 C 8.839844 23.109375 8.839844 23.578125 9.128906 23.867188 C 9.277344 24.007812 9.464844 24.082031 9.65625 24.082031 C 9.84375 24.082031 10.035156 24.007812 10.179688 23.867188 L 12.285156 21.761719 C 12.574219 21.472656 12.574219 21.003906 12.285156 20.710938 Z M 16.5 22.453125 C 16.089844 22.453125 15.753906 22.789062 15.753906 23.199219 L 15.753906 26.179688 C 15.753906 26.585938 16.089844 26.921875 16.5 26.921875 C 16.910156 26.921875 17.242188 26.585938 17.242188 26.179688 L 17.242188 23.199219 C 17.242188 22.789062 16.910156 22.453125 16.5 22.453125 Z M 23.871094 22.820312 L 21.761719 20.710938 C 21.472656 20.421875 21.003906 20.421875 20.714844 20.710938 C 20.421875 21.003906 20.421875 21.46875 20.714844 21.761719 L 22.820312 23.867188 C 22.960938 24.007812 23.15625 24.082031 23.34375 24.082031 C 23.535156 24.082031 23.722656 24.007812 23.871094 23.867188 C 24.160156 23.578125 24.160156 23.109375 23.871094 22.820312 Z M 26.175781 15.753906 L 23.199219 15.753906 C 22.789062 15.753906 22.453125 16.089844 22.453125 16.5 C 22.453125 16.90625 22.789062 17.242188 23.199219 17.242188 L 26.175781 17.242188 C 26.585938 17.242188 26.921875 16.90625 26.921875 16.5 C 26.921875 16.089844 26.585938 15.753906 26.175781 15.753906 Z M 23.871094 9.125 C 23.578125 8.835938 23.109375 8.835938 22.820312 9.125 L 20.714844 11.234375 C 20.421875 11.523438 20.421875 11.992188 20.714844 12.28125 C 20.855469 12.433594 21.050781 12.507812 21.234375 12.507812 C 21.429688 12.507812 21.621094 12.433594 21.761719 12.28125 L 23.871094 10.175781 C 24.160156 9.886719 24.160156 9.417969 23.871094 9.125 Z M 16.5 6.074219 C 16.089844 6.074219 15.753906 6.410156 15.753906 6.820312 L 15.753906 9.796875 C 15.753906 10.207031 16.089844 10.542969 16.5 10.542969 C 16.910156 10.542969 17.242188 10.207031 17.242188 9.796875 L 17.242188 6.820312 C 17.242188 6.410156 16.910156 6.074219 16.5 6.074219 Z M 21.710938 16.5 C 21.710938 19.378906 19.378906 21.710938 16.5 21.710938 C 13.617188 21.710938 11.289062 19.378906 11.289062 16.5 C 11.289062 13.617188 13.617188 11.285156 16.5 11.285156 C 19.378906 11.285156 21.710938 13.617188 21.710938 16.5 Z M 21.710938 16.5 " fill-opacity="1" fill-rule="nonzero"/></g><g clip-path="url(#dbe2b1860c)"><path stroke-linecap="butt" transform="matrix(0.75, 0, 0, 0.75, 0.000001, -0.000001)" fill="none" stroke-linejoin="miter" d="M 22.000001 0.00000133333 C 9.848958 0.00000133333 -0.00000133333 9.848961 -0.00000133333 22.000004 C -0.00000133333 34.151046 9.848958 44.000006 22.000001 44.000006 C 34.151044 44.000006 44.000003 34.151046 44.000003 22.000004 C 44.000003 9.848961 34.151044 0.00000133333 22.000001 0.00000133333 Z M 22.000001 0.00000133333 " stroke="currentcolor" stroke-width="4" stroke-opacity="1" stroke-miterlimit="4"/></g></svg>