<svg xmlns="http://www.w3.org/2000/svg" xmlns:xlink="http://www.w3.org/1999/xlink" width="44" zoomAndPan="magnify" viewBox="0 0 33 32.999998" height="44" preserveAspectRatio="xMidYMid meet" version="1.0"><defs><clipPath id="6050cd6451"><path d="M 16.5 0 C 7.386719 0 0 7.386719 0 16.5 C 0 25.613281 7.386719 33 16.5 33 C 25.613281 33 33 25.613281 33 16.5 C 33 7.386719 25.613281 0 16.5 0 Z M 16.5 0 " clip-rule="nonzero"/></clipPath><clipPath id="717bc0402a"><path d="M 6 5.886719 L 26.886719 5.886719 L 26.886719 26.886719 L 6 26.886719 Z M 6 5.886719 " clip-rule="nonzero"/></clipPath></defs><g clip-path="url(#6050cd6451)"><path stroke-linecap="butt" transform="matrix(0.75, 0, 0, 0.75, 0.000001, -0.000001)" fill="none" stroke-linejoin="miter" d="M 22.000001 0.00000133333 C 9.848958 0.00000133333 -0.00000133333 9.848961 -0.00000133333 22.000004 C -0.00000133333 34.151046 9.848958 44.000006 22.000001 44.000006 C 34.151044 44.000006 44.000003 34.151046 44.000003 22.000004 C 44.000003 9.848961 34.151044 0.00000133333 22.000001 0.00000133333 Z M 22.000001 0.00000133333 " stroke="currentcolor" stroke-width="4" stroke-opacity="1" stroke-miterlimit="4"/></g><g clip-path="url(#717bc0402a)"><path fill="currentcolor" d="M 27.109375 17.445312 C 27.046875 18.105469 26.921875 18.753906 26.734375 19.390625 C 26.550781 20.027344 26.304688 20.644531 26.003906 21.234375 C 25.703125 21.824219 25.347656 22.382812 24.941406 22.90625 C 24.535156 23.433594 24.082031 23.914062 23.582031 24.351562 C 23.085938 24.789062 22.550781 25.179688 21.980469 25.515625 C 21.40625 25.855469 20.808594 26.136719 20.183594 26.363281 C 19.558594 26.585938 18.921875 26.75 18.265625 26.855469 C 17.609375 26.960938 16.949219 27.003906 16.285156 26.980469 C 15.621094 26.960938 14.96875 26.878906 14.320312 26.734375 C 13.671875 26.589844 13.042969 26.386719 12.433594 26.125 C 11.824219 25.863281 11.242188 25.546875 10.691406 25.171875 C 10.144531 24.800781 9.632812 24.382812 9.164062 23.914062 C 8.691406 23.445312 8.269531 22.9375 7.894531 22.386719 C 7.519531 21.839844 7.203125 21.261719 6.9375 20.652344 C 6.671875 20.042969 6.464844 19.417969 6.316406 18.769531 C 6.171875 18.121094 6.085938 17.464844 6.0625 16.804688 C 6.039062 16.140625 6.078125 15.480469 6.179688 14.824219 C 6.28125 14.167969 6.445312 13.527344 6.667969 12.902344 C 6.886719 12.277344 7.167969 11.675781 7.503906 11.105469 C 7.839844 10.53125 8.222656 9.996094 8.660156 9.496094 C 9.097656 8.996094 9.578125 8.539062 10.101562 8.132812 C 10.621094 7.722656 11.179688 7.363281 11.769531 7.058594 C 12.359375 6.753906 12.972656 6.507812 13.609375 6.320312 C 14.246094 6.132812 14.894531 6.003906 15.554688 5.9375 C 15.675781 5.917969 15.789062 5.945312 15.894531 6.007812 C 15.996094 6.074219 16.066406 6.164062 16.105469 6.28125 C 16.144531 6.398438 16.136719 6.515625 16.089844 6.628906 C 16.042969 6.742188 15.964844 6.828125 15.855469 6.882812 C 15.601562 7.023438 15.359375 7.179688 15.121094 7.351562 C 14.886719 7.519531 14.664062 7.703125 14.449219 7.898438 C 14.234375 8.09375 14.035156 8.300781 13.84375 8.519531 C 13.652344 8.738281 13.476562 8.96875 13.3125 9.207031 C 13.148438 9.449219 13 9.695312 12.863281 9.953125 C 12.730469 10.210938 12.609375 10.472656 12.507812 10.742188 C 12.402344 11.015625 12.3125 11.289062 12.238281 11.570312 C 12.167969 11.851562 12.109375 12.136719 12.070312 12.421875 C 12.03125 12.710938 12.007812 12.996094 12 13.289062 C 11.996094 13.578125 12.003906 13.867188 12.03125 14.15625 C 12.058594 14.445312 12.101562 14.730469 12.164062 15.015625 C 12.222656 15.296875 12.296875 15.578125 12.390625 15.851562 C 12.484375 16.128906 12.589844 16.394531 12.714844 16.660156 C 12.835938 16.921875 12.976562 17.175781 13.128906 17.421875 C 13.28125 17.667969 13.445312 17.90625 13.625 18.132812 C 13.804688 18.359375 14 18.578125 14.203125 18.78125 C 14.410156 18.988281 14.625 19.179688 14.851562 19.359375 C 15.078125 19.539062 15.316406 19.707031 15.5625 19.859375 C 15.808594 20.011719 16.0625 20.152344 16.324219 20.273438 C 16.589844 20.398438 16.855469 20.503906 17.132812 20.597656 C 17.40625 20.691406 17.6875 20.765625 17.96875 20.828125 C 18.253906 20.886719 18.539062 20.929688 18.828125 20.957031 C 19.117188 20.984375 19.40625 20.996094 19.695312 20.988281 C 19.984375 20.984375 20.273438 20.960938 20.5625 20.921875 C 20.847656 20.882812 21.132812 20.824219 21.414062 20.753906 C 21.695312 20.679688 21.96875 20.59375 22.242188 20.488281 C 22.511719 20.382812 22.773438 20.265625 23.03125 20.128906 C 23.289062 19.996094 23.539062 19.847656 23.777344 19.683594 C 24.015625 19.519531 24.246094 19.34375 24.464844 19.152344 C 24.683594 18.964844 24.890625 18.761719 25.085938 18.546875 C 25.285156 18.332031 25.464844 18.109375 25.636719 17.875 C 25.804688 17.640625 25.960938 17.394531 26.105469 17.140625 C 26.253906 16.921875 26.457031 16.855469 26.707031 16.953125 C 26.824219 16.976562 26.921875 17.035156 26.996094 17.125 C 27.074219 17.21875 27.109375 17.324219 27.109375 17.445312 Z M 27.109375 17.445312 " fill-opacity="1" fill-rule="nonzero"/></g></svg>